  0
SECTION
  2
HEADER
  9
$ACADVER
  1
AC1018
  9
$ACADMAINTVER
 70
     0
  9
$DWGCODEPAGE
  3
ANSI_1252
  9
$EXTMIN
 10
-6993.42437010583
 20
6717041.68422539
 30
0.0
  9
$EXTMAX
 10
-6521.09577066997
 20
6717964.87457602
 30
0.0
  9
$LIMMIN
 10
0.0
 20
0.0
  9
$LIMMAX
 10
12.0
 20
9.0
  9
$ORTHOMODE
 70
     0
  9
$REGENMODE
 70
     1
  9
$FILLMODE
 70
     1
  9
$QTEXTMODE
 70
     0
  9
$MIRRTEXT
 70
     1
  9
$LTSCALE
 40
1.0
  9
$ATTMODE
 70
     1
  9
$TEXTSIZE
 40
0.2
  9
$TRACEWID
 40
0.05
  9
$TEXTSTYLE
  7
Standard
  9
$CLAYER
  8
0
  9
$CELTYPE
  6
ByLayer
  9
$CECOLOR
 62
   256
  9
$CELTSCALE
 40
1.0
  9
$DISPSILH
 70
     0
  9
$LUNITS
 70
     2
  9
$LUPREC
 70
     4
  9
$SKETCHINC
 40
0.1
  9
$FILLETRAD
 40
0.5
  9
$AUNITS
 70
     0
  9
$AUPREC
 70
     0
  9
$MENU
  1
.
  9
$ELEVATION
 40
0.0
  9
$PELEVATION
 40
0.0
  9
$THICKNESS
 40
0.0
  9
$LIMCHECK
 70
     0
  9
$CHAMFERA
 40
0.5
  9
$CHAMFERB
 40
0.5
  9
$CHAMFERC
 40
1.0
  9
$CHAMFERD
 40
0.0
  9
$SKPOLY
 70
     0
  9
$ANGBASE
 50
0.0
  9
$ANGDIR
 70
     0
  9
$PDMODE
 70
     0
  9
$PDSIZE
 40
0.0
  9
$PLINEWID
 40
0.0
  9
$SPLFRAME
 70
     0
  9
$SPLINETYPE
 70
     6
  9
$SPLINESEGS
 70
     8
  9
$HANDSEED
  5
000202E2
  9
$SURFTAB1
 70
     6
  9
$SURFTAB2
 70
     6
  9
$SURFTYPE
 70
     6
  9
$SURFU
 70
     6
  9
$SURFV
 70
     6
  9
$UCSBASE
  2

  9
$UCSNAME
  2

  9
$UCSORG
 10
0.0
 20
0.0
 30
0.0
  9
$UCSXDIR
 10
1.0
 20
0.0
 30
0.0
  9
$UCSYDIR
 10
0.0
 20
1.0
 30
0.0
  9
$UCSORTHOREF
  2

  9
$UCSORTHOVIEW
 70
     0
  9
$UCSORGTOP
 10
0.0
 20
0.0
 30
0.0
  9
$UCSORGBOTTOM
 10
0.0
 20
0.0
 30
0.0
  9
$UCSORGLEFT
 10
0.0
 20
0.0
 30
0.0
  9
$UCSORGRIGHT
 10
0.0
 20
0.0
 30
0.0
  9
$UCSORGFRONT
 10
0.0
 20
0.0
 30
0.0
  9
$UCSORGBACK
 10
0.0
 20
0.0
 30
0.0
  9
$PUCSBASE
  2

  9
$PUCSNAME
  2

  9
$PUCSORG
 10
0.0
 20
0.0
 30
0.0
  9
$PUCSXDIR
 10
1.0
 20
0.0
 30
0.0
  9
$PUCSYDIR
 10
0.0
 20
1.0
 30
0.0
  9
$PUCSORTHOREF
  2

  9
$PUCSORTHOVIEW
 70
     0
  9
$PUCSORGTOP
 10
0.0
 20
0.0
 30
0.0
  9
$PUCSORGBOTTOM
 10
0.0
 20
0.0
 30
0.0
  9
$PUCSORGLEFT
 10
0.0
 20
0.0
 30
0.0
  9
$PUCSORGRIGHT
 10
0.0
 20
0.0
 30
0.0
  9
$PUCSORGFRONT
 10
0.0
 20
0.0
 30
0.0
  9
$PUCSORGBACK
 10
0.0
 20
0.0
 30
0.0
  9
$WORLDVIEW
 70
     1
  9
$SHADEDGE
 70
     3
  9
$SHADEDIF
 70
    70
  9
$TILEMODE
 70
     1
  9
$MAXACTVP
 70
    64
  9
$PINSBASE
 10
0.0
 20
0.0
 30
0.0
  9
$PLIMCHECK
 70
     0
  9
$PEXTMIN
 10
1.000000000000000E+20
 20
1.000000000000000E+20
 30
1.000000000000000E+20
  9
$PEXTMAX
 10
-1.000000000000000E+20
 20
-1.000000000000000E+20
 30
-1.000000000000000E+20
  9
$PLIMMIN
 10
0.0
 20
0.0
  9
$PLIMMAX
 10
12.0
 20
9.0
  9
$UNITMODE
 70
     0
  9
$VISRETAIN
 70
     1
  9
$PLINEGEN
 70
     0
  9
$PSLTSCALE
 70
     1
  9
$TREEDEPTH
 70
  3020
  9
$CMLSTYLE
  2
Standard
  9
$CMLJUST
 70
     0
  9
$CMLSCALE
 40
1.0
  9
$PROXYGRAPHICS
 70
     1
  9
$MEASUREMENT
 70
     0
  9
$CELWEIGHT
370
    -1
  9
$ENDCAPS
280
     0
  9
$JOINSTYLE
280
     0
  9
$LWDISPLAY
290
     0
  9
$INSUNITS
 70
     1
  9
$HYPERLINKBASE
  1

  9
$STYLESHEET
  1

  9
$XEDIT
290
     1
  9
$CEPSNTYPE
380
     0
  9
$PSTYLEMODE
290
     1
  9
$EXTNAMES
290
     1
  9
$PSVPSCALE
 40
0.0
  9
$OLESTARTUP
290
     0
  9
$SORTENTS
280
   127
  9
$INDEXCTL
280
     0
  9
$HIDETEXT
280
     1
  9
$XCLIPFRAME
290
     0
  9
$HALOGAP
280
     0
  9
$OBSCOLOR
 70
   257
  9
$OBSLTYPE
280
     0
  9
$INTERSECTIONDISPLAY
280
     0
  9
$INTERSECTIONCOLOR
 70
   257
  9
$DIMASSOC
280
     2
  9
$PROJECTNAME
  1

  0
ENDSEC
  0
SECTION
  2
CLASSES
  0
CLASS
  1
ACDBDICTIONARYWDFLT
  2
AcDbDictionaryWithDefault
  3
ObjectDBX Classes
 90
        0
 91
        4
280
     0
281
     0
  0
ENDSEC
  0
SECTION
  2
TABLES
  0
TABLE
  2
VPORT
  5
8
330
0
100
AcDbSymbolTable
 70
     1
  0
VPORT
  5
29
330
8
100
AcDbSymbolTableRecord
100
AcDbViewportTableRecord
  2
*Active
 70
     0
 10
0.0
 20
0.0
 11
1.0
 21
1.0
 12
80.25
 22
106.4409457059851
 13
0.0
 23
0.0
 14
0.5
 24
0.5
 15
0.5
 25
0.5
 16
0.0
 26
0.0
 36
1.0
 17
0.0
 27
0.0
 37
0.0
 40
113.3818914119703
 41
0.8863849310366128
 42
50.0
 43
0.0
 44
0.0
 50
0.0
 51
0.0
 71
     0
 72
  1000
 73
     1
 74
     3
 75
     0
 76
     0
 77
     0
 78
     0
281
     0
 65
     1
110
0.0
120
0.0
130
0.0
111
1.0
121
0.0
131
0.0
112
0.0
122
1.0
132
0.0
 79
     0
146
0.0
  0
ENDTAB
  0
TABLE
  2
LTYPE
  5
5
330
0
100
AcDbSymbolTable
 70
     1
  0
LTYPE
  5
14
330
5
100
AcDbSymbolTableRecord
100
AcDbLinetypeTableRecord
  2
ByBlock
 70
     0
  3

 72
    65
 73
     0
 40
0.0
  0
LTYPE
  5
15
330
5
100
AcDbSymbolTableRecord
100
AcDbLinetypeTableRecord
  2
ByLayer
 70
     0
  3

 72
    65
 73
     0
 40
0.0
  0
LTYPE
  5
16
330
5
100
AcDbSymbolTableRecord
100
AcDbLinetypeTableRecord
  2
Continuous
 70
     0
  3
Solid line
 72
    65
 73
     0
 40
0.0
  0
ENDTAB
  0
TABLE
  2
LAYER
  5
2
330
0
100
AcDbSymbolTable
 70
     1
  0
LAYER
  5
10
330
2
100
AcDbSymbolTableRecord
100
AcDbLayerTableRecord
  2
0
 70
     0
 62
     7
  6
Continuous
370
    -3
390
F
  0
ENDTAB
  0
TABLE
  2
STYLE
  5
3
330
0
100
AcDbSymbolTable
 70
     1
  0
STYLE
  5
11
330
3
100
AcDbSymbolTableRecord
100
AcDbTextStyleTableRecord
  2
Standard
 70
     0
 40
0.0
 41
1.0
 50
0.0
 71
     0
 42
0.2
  3
txt
  4

  0
ENDTAB
  0
TABLE
  2
VIEW
  5
6
330
0
100
AcDbSymbolTable
 70
     0
  0
ENDTAB
  0
TABLE
  2
UCS
  5
7
330
0
100
AcDbSymbolTable
 70
     0
  0
ENDTAB
  0
TABLE
  2
APPID
  5
9
330
0
100
AcDbSymbolTable
 70
     1
  0
APPID
  5
12
330
9
100
AcDbSymbolTableRecord
100
AcDbRegAppTableRecord
  2
ACAD
 70
     0
  0
ENDTAB
  0
TABLE
  2
DIMSTYLE
  5
A
330
0
100
AcDbSymbolTable
 70
     1
100
AcDbDimStyleTable
  0
DIMSTYLE
105
27
330
A
100
AcDbSymbolTableRecord
100
AcDbDimStyleTableRecord
  2
Standard
 70
     0
340
11
  0
ENDTAB
  0
TABLE
  2
BLOCK_RECORD
  5
1
330
0
100
AcDbSymbolTable
 70
     1
  0
BLOCK_RECORD
  5
1F
330
1
100
AcDbSymbolTableRecord
100
AcDbBlockTableRecord
  2
*Model_Space
340
22
  0
BLOCK_RECORD
  5
1B
330
1
100
AcDbSymbolTableRecord
100
AcDbBlockTableRecord
  2
*Paper_Space
340
1E
  0
ENDTAB
  0
ENDSEC
  0
SECTION
  2
BLOCKS
  0
BLOCK
  5
20
330
1F
100
AcDbEntity
  8
0
100
AcDbBlockBegin
  2
*Model_Space
 70
     0
 10
0.0
 20
0.0
 30
0.0
  3
*Model_Space
  1

  0
ENDBLK
  5
21
330
1F
100
AcDbEntity
  8
0
100
AcDbBlockEnd
  0
BLOCK
  5
1C
330
1B
100
AcDbEntity
 67
     1
  8
0
100
AcDbBlockBegin
  2
*Paper_Space
 70
     0
 10
0.0
 20
0.0
 30
0.0
  3
*Paper_Space
  1

  0
ENDBLK
  5
1D
330
1B
100
AcDbEntity
 67
     1
  8
0
100
AcDbBlockEnd
  0
ENDSEC
  0
SECTION
  2
ENTITIES
  0
POINT
  5
20000
100
AcDbEntity
  8
0
100
AcDbPoint
 10
-6754.86670133584
 20
6717041.68422539
  0
POINT
  5
20001
100
AcDbEntity
  8
0
100
AcDbPoint
 10
-6770.67406902849
 20
6717073.0044012
  0
POINT
  5
20002
100
AcDbEntity
  8
0
100
AcDbPoint
 10
-6771.00802750086
 20
6717073.54131954
  0
POINT
  5
20003
100
AcDbEntity
  8
0
100
AcDbPoint
 10
-6771.78726393642
 20
6717073.54131954
  0
POINT
  5
20004
100
AcDbEntity
  8
0
100
AcDbPoint
 10
-6771.23066648245
 20
6717073.54131954
  0
POINT
  5
20005
100
AcDbEntity
  8
0
100
AcDbPoint
 10
-6771.34198597324
 20
6717071.75159185
  0
POINT
  5
20006
100
AcDbEntity
  8
0
100
AcDbPoint
 10
-6770.22879106531
 20
6717071.39364636
  0
POINT
  5
20007
100
AcDbEntity
  8
0
100
AcDbPoint
 10
-6769.89483259293
 20
6717071.21467362
  0
POINT
  5
20008
100
AcDbEntity
  8
0
100
AcDbPoint
 10
-6769.67219361135
 20
6717070.85672815
  0
POINT
  5
20009
100
AcDbEntity
  8
0
100
AcDbPoint
 10
-6769.56087412055
 20
6717070.4987827
  0
POINT
  5
2000A
100
AcDbEntity
  8
0
100
AcDbPoint
 10
-6769.11559615738
 20
6717070.31980998
  0
POINT
  5
2000B
100
AcDbEntity
  8
0
100
AcDbPoint
 10
-6769.00427666659
 20
6717069.42494644
  0
POINT
  5
2000C
100
AcDbEntity
  8
0
100
AcDbPoint
 10
-6769.00427666659
 20
6717069.42494644
  0
POINT
  5
2000D
100
AcDbEntity
  8
0
100
AcDbPoint
 10
-6769.00427666659
 20
6717069.42494644
  0
POINT
  5
2000E
100
AcDbEntity
  8
0
100
AcDbPoint
 10
-6769.00427666659
 20
6717069.42494644
  0
POINT
  5
2000F
100
AcDbEntity
  8
0
100
AcDbPoint
 10
-6769.00427666659
 20
6717069.42494644
  0
POINT
  5
20010
100
AcDbEntity
  8
0
100
AcDbPoint
 10
-6766.88920634151
 20
6717072.28851012
  0
POINT
  5
20011
100
AcDbEntity
  8
0
100
AcDbPoint
 10
-6765.99865041517
 20
6717073.54131954
  0
POINT
  5
20012
100
AcDbEntity
  8
0
100
AcDbPoint
 10
-6765.66469194279
 20
6717074.79412916
  0
POINT
  5
20013
100
AcDbEntity
  8
0
100
AcDbPoint
 10
-6765.10809448882
 20
6717074.43618354
  0
POINT
  5
20014
100
AcDbEntity
  8
0
100
AcDbPoint
 10
-6766.22128939675
 20
6717075.6889933
  0
POINT
  5
20015
100
AcDbEntity
  8
0
100
AcDbPoint
 10
-6765.66469194279
 20
6717076.22591182
  0
POINT
  5
20016
100
AcDbEntity
  8
0
100
AcDbPoint
 10
-6765.21941397961
 20
6717077.12077611
  0
POINT
  5
20017
100
AcDbEntity
  8
0
100
AcDbPoint
 10
-6765.10809448882
 20
6717077.65769473
  0
POINT
  5
20018
100
AcDbEntity
  8
0
100
AcDbPoint
 10
-6773.01177833514
 20
6717084.63764002
  0
POINT
  5
20019
100
AcDbEntity
  8
0
100
AcDbPoint
 10
-6776.79664102212
 20
6717088.39607458
  0
POINT
  5
2001A
100
AcDbEntity
  8
0
100
AcDbPoint
 10
-6777.90983593005
 20
6717091.79656449
  0
POINT
  5
2001B
100
AcDbEntity
  8
0
100
AcDbPoint
 10
-6779.91358676433
 20
6717095.37602908
  0
POINT
  5
2001C
100
AcDbEntity
  8
0
100
AcDbPoint
 10
-6783.25317148813
 20
6717098.06062855
  0
POINT
  5
2001D
100
AcDbEntity
  8
0
100
AcDbPoint
 10
-6783.03053250654
 20
6717099.4924153
  0
POINT
  5
2001E
100
AcDbEntity
  8
0
100
AcDbPoint
 10
-6783.25317148813
 20
6717099.85036203
  0
POINT
  5
2001F
100
AcDbEntity
  8
0
100
AcDbPoint
 10
-6784.14372741447
 20
6717100.9242023
  0
POINT
  5
20020
100
AcDbEntity
  8
0
100
AcDbPoint
 10
-6784.36636639606
 20
6717102.17701613
  0
POINT
  5
20021
100
AcDbEntity
  8
0
100
AcDbPoint
 10
-6785.2569223224
 20
6717105.21956481
  0
POINT
  5
20022
100
AcDbEntity
  8
0
100
AcDbPoint
 10
-6784.70032486844
 20
6717105.39853829
  0
POINT
  5
20023
100
AcDbEntity
  8
0
100
AcDbPoint
 10
-6782.47393505257
 20
6717107.18827338
  0
POINT
  5
20024
100
AcDbEntity
  8
0
100
AcDbPoint
 10
-6782.13997658019
 20
6717108.97800886
  0
POINT
  5
20025
100
AcDbEntity
  8
0
100
AcDbPoint
 10
-6782.47393505257
 20
6717110.58877113
  0
POINT
  5
20026
100
AcDbEntity
  8
0
100
AcDbPoint
 10
-6782.91921301575
 20
6717112.02056008
  0
POINT
  5
20027
100
AcDbEntity
  8
0
100
AcDbPoint
 10
-6783.80976894209
 20
6717113.27337562
  0
POINT
  5
20028
100
AcDbEntity
  8
0
100
AcDbPoint
 10
-6785.14560283161
 20
6717114.16824398
  0
POINT
  5
20029
100
AcDbEntity
  8
0
100
AcDbPoint
 10
-6785.70220028558
 20
6717113.27337562
  0
POINT
  5
2002A
100
AcDbEntity
  8
0
100
AcDbPoint
 10
-6786.25879773954
 20
6717111.66261282
  0
POINT
  5
2002B
100
AcDbEntity
  8
0
100
AcDbPoint
 10
-6786.81539519351
 20
6717111.48363919
  0
POINT
  5
2002C
100
AcDbEntity
  8
0
100
AcDbPoint
 10
-6787.70595111986
 20
6717110.76774473
  0
POINT
  5
2002D
100
AcDbEntity
  8
0
100
AcDbPoint
 10
-6788.26254857382
 20
6717109.87287675
  0
POINT
  5
2002E
100
AcDbEntity
  8
0
100
AcDbPoint
 10
-6789.37574348176
 20
6717108.7990353
  0
POINT
  5
2002F
100
AcDbEntity
  8
0
100
AcDbPoint
 10
-6792.15873075159
 20
6717105.21956481
  0
POINT
  5
20030
100
AcDbEntity
  8
0
100
AcDbPoint
 10
-6793.27192565952
 20
6717103.42983015
  0
POINT
  5
20031
100
AcDbEntity
  8
0
100
AcDbPoint
 10
-6794.71907903983
 20
6717102.7139364
  0
POINT
  5
20032
100
AcDbEntity
  8
0
100
AcDbPoint
 10
-6794.71907903983
 20
6717102.17701613
  0
POINT
  5
20033
100
AcDbEntity
  8
0
100
AcDbPoint
 10
-6795.2756764938
 20
6717101.8190693
  0
POINT
  5
20034
100
AcDbEntity
  8
0
100
AcDbPoint
 10
-6796.27755191094
 20
6717102.53496297
  0
POINT
  5
20035
100
AcDbEntity
  8
0
100
AcDbPoint
 10
-6797.50206630966
 20
6717103.07188327
  0
POINT
  5
20036
100
AcDbEntity
  8
0
100
AcDbPoint
 10
-6799.61713663474
 20
6717103.96675051
  0
POINT
  5
20037
100
AcDbEntity
  8
0
100
AcDbPoint
 10
-6802.17748492298
 20
6717103.96675051
  0
POINT
  5
20038
100
AcDbEntity
  8
0
100
AcDbPoint
 10
-6805.29443066519
 20
6717105.21956481
  0
POINT
  5
20039
100
AcDbEntity
  8
0
100
AcDbPoint
 10
-6805.73970862837
 20
6717104.86161785
  0
POINT
  5
2003A
100
AcDbEntity
  8
0
100
AcDbPoint
 10
-6809.07929335216
 20
6717106.29340579
  0
POINT
  5
2003B
100
AcDbEntity
  8
0
100
AcDbPoint
 10
-6810.86040520486
 20
6717106.29340579
  0
POINT
  5
2003C
100
AcDbEntity
  8
0
100
AcDbPoint
 10
-6811.63964164041
 20
6717104.5036709
  0
POINT
  5
2003D
100
AcDbEntity
  8
0
100
AcDbPoint
 10
-6812.97547552993
 20
6717103.6088036
  0
POINT
  5
2003E
100
AcDbEntity
  8
0
100
AcDbPoint
 10
-6813.64339247469
 20
6717102.17701613
  0
POINT
  5
2003F
100
AcDbEntity
  8
0
100
AcDbPoint
 10
-6815.31318483659
 20
6717102.17701613
  0
POINT
  5
20040
100
AcDbEntity
  8
0
100
AcDbPoint
 10
-6817.42825516166
 20
6717102.53496297
  0
POINT
  5
20041
100
AcDbEntity
  8
0
100
AcDbPoint
 10
-6819.09804752356
 20
6717102.53496297
  0
POINT
  5
20042
100
AcDbEntity
  8
0
100
AcDbPoint
 10
-6820.32256192228
 20
6717102.17701613
  0
POINT
  5
20043
100
AcDbEntity
  8
0
100
AcDbPoint
 10
-6822.21499326577
 20
6717102.7139364
  0
POINT
  5
20044
100
AcDbEntity
  8
0
100
AcDbPoint
 10
-6824.77534155402
 20
6717102.7139364
  0
POINT
  5
20045
100
AcDbEntity
  8
0
100
AcDbPoint
 10
-6826.89041187909
 20
6717102.17701613
  0
POINT
  5
20046
100
AcDbEntity
  8
0
100
AcDbPoint
 10
-6834.23749827145
 20
6717096.80781535
  0
POINT
  5
20047
100
AcDbEntity
  8
0
100
AcDbPoint
 10
-6840.58270924666
 20
6717090.00683278
  0
POINT
  5
20048
100
AcDbEntity
  8
0
100
AcDbPoint
 10
-6847.59583716664
 20
6717083.74277491
  0
POINT
  5
20049
100
AcDbEntity
  8
0
100
AcDbPoint
 10
-6856.5013964301
 20
6717077.65769473
  0
POINT
  5
2004A
100
AcDbEntity
  8
0
100
AcDbPoint
 10
-6861.95605147897
 20
6717074.43618354
  0
POINT
  5
2004B
100
AcDbEntity
  8
0
100
AcDbPoint
 10
-6864.7390387488
 20
6717069.96186455
  0
POINT
  5
2004C
100
AcDbEntity
  8
0
100
AcDbPoint
 10
-6860.62021758945
 20
6717074.97310198
  0
POINT
  5
2004D
100
AcDbEntity
  8
0
100
AcDbPoint
 10
-6862.51264893294
 20
6717072.10953736
  0
POINT
  5
2004E
100
AcDbEntity
  8
0
100
AcDbPoint
 10
-6863.62584384087
 20
6717069.60391914
  0
POINT
  5
2004F
100
AcDbEntity
  8
0
100
AcDbPoint
 10
-6866.96542856467
 20
6717070.85672815
  0
POINT
  5
20050
100
AcDbEntity
  8
0
100
AcDbPoint
 10
-6873.75591750306
 20
6717070.85672815
  0
POINT
  5
20051
100
AcDbEntity
  8
0
100
AcDbPoint
 10
-6887.67085385222
 20
6717072.10953736
  0
POINT
  5
20052
100
AcDbEntity
  8
0
100
AcDbPoint
 10
-6891.01043857601
 20
6717072.64645565
  0
POINT
  5
20053
100
AcDbEntity
  8
0
100
AcDbPoint
 10
-6895.35189871695
 20
6717073.18337398
  0
POINT
  5
20054
100
AcDbEntity
  8
0
100
AcDbPoint
 10
-6896.01981566171
 20
6717075.33104763
  0
POINT
  5
20055
100
AcDbEntity
  8
0
100
AcDbPoint
 10
-6897.57828853282
 20
6717075.6889933
  0
POINT
  5
20056
100
AcDbEntity
  8
0
100
AcDbPoint
 10
-6900.69523427503
 20
6717076.22591182
  0
POINT
  5
20057
100
AcDbEntity
  8
0
100
AcDbPoint
 10
-6903.81218001724
 20
6717076.58385753
  0
POINT
  5
20058
100
AcDbEntity
  8
0
100
AcDbPoint
 10
-6903.47822154486
 20
6717077.12077611
  0
POINT
  5
20059
100
AcDbEntity
  8
0
100
AcDbPoint
 10
-6901.02919274741
 20
6717078.37358628
  0
POINT
  5
2005A
100
AcDbEntity
  8
0
100
AcDbPoint
 10
-6901.25183172899
 20
6717079.80536957
  0
POINT
  5
2005B
100
AcDbEntity
  8
0
100
AcDbPoint
 10
-6901.25183172899
 20
6717081.95304497
  0
POINT
  5
2005C
100
AcDbEntity
  8
0
100
AcDbPoint
 10
-6901.47447071058
 20
6717084.63764002
  0
POINT
  5
2005D
100
AcDbEntity
  8
0
100
AcDbPoint
 10
-6901.47447071058
 20
6717088.75402082
  0
POINT
  5
2005E
100
AcDbEntity
  8
0
100
AcDbPoint
 10
-6902.03106816455
 20
6717091.08067176
  0
POINT
  5
2005F
100
AcDbEntity
  8
0
100
AcDbPoint
 10
-6901.80842918296
 20
6717091.08067176
  0
POINT
  5
20060
100
AcDbEntity
  8
0
100
AcDbPoint
 10
-6901.47447071058
 20
6717092.69143048
  0
POINT
  5
20061
100
AcDbEntity
  8
0
100
AcDbPoint
 10
-6900.69523427503
 20
6717094.66013603
  0
POINT
  5
20062
100
AcDbEntity
  8
0
100
AcDbPoint
 10
-6899.80467834868
 20
6717097.16576196
  0
POINT
  5
20063
100
AcDbEntity
  8
0
100
AcDbPoint
 10
-6897.68960802361
 20
6717098.95549524
  0
POINT
  5
20064
100
AcDbEntity
  8
0
100
AcDbPoint
 10
-6895.68585718933
 20
6717100.9242023
  0
POINT
  5
20065
100
AcDbEntity
  8
0
100
AcDbPoint
 10
-6894.23870380902
 20
6717103.42983015
  0
POINT
  5
20066
100
AcDbEntity
  8
0
100
AcDbPoint
 10
-6893.68210635505
 20
6717105.39853829
  0
POINT
  5
20067
100
AcDbEntity
  8
0
100
AcDbPoint
 10
-6892.68023093791
 20
6717107.18827338
  0
POINT
  5
20068
100
AcDbEntity
  8
0
100
AcDbPoint
 10
-6893.12550890109
 20
6717110.23082393
  0
POINT
  5
20069
100
AcDbEntity
  8
0
100
AcDbPoint
 10
-6892.34627246553
 20
6717115.06311244
  0
POINT
  5
2006A
100
AcDbEntity
  8
0
100
AcDbPoint
 10
-6891.56703602998
 20
6717117.7477184
  0
POINT
  5
2006B
100
AcDbEntity
  8
0
100
AcDbPoint
 10
-6891.56703602998
 20
6717119.71643
  0
POINT
  5
2006C
100
AcDbEntity
  8
0
100
AcDbPoint
 10
-6893.79342584585
 20
6717122.22206364
  0
POINT
  5
2006D
100
AcDbEntity
  8
0
100
AcDbPoint
 10
-6893.23682839188
 20
6717124.01180242
  0
POINT
  5
2006E
100
AcDbEntity
  8
0
100
AcDbPoint
 10
-6893.45946737347
 20
6717125.98051554
  0
POINT
  5
2006F
100
AcDbEntity
  8
0
100
AcDbPoint
 10
-6892.34627246553
 20
6717128.4861511
  0
POINT
  5
20070
100
AcDbEntity
  8
0
100
AcDbPoint
 10
-6891.45571653919
 20
6717130.27589126
  0
POINT
  5
20071
100
AcDbEntity
  8
0
100
AcDbPoint
 10
-6890.89911908522
 20
6717132.96050224
  0
POINT
  5
20072
100
AcDbEntity
  8
0
100
AcDbPoint
 10
-6891.01043857601
 20
6717134.92921751
  0
POINT
  5
20073
100
AcDbEntity
  8
0
100
AcDbPoint
 10
-6891.56703602998
 20
6717136.71895909
  0
POINT
  5
20074
100
AcDbEntity
  8
0
100
AcDbPoint
 10
-6893.45946737347
 20
6717139.40357219
  0
POINT
  5
20075
100
AcDbEntity
  8
0
100
AcDbPoint
 10
-6896.57641311568
 20
6717138.8666495
  0
POINT
  5
20076
100
AcDbEntity
  8
0
100
AcDbPoint
 10
-6899.35940038551
 20
6717138.8666495
  0
POINT
  5
20077
100
AcDbEntity
  8
0
100
AcDbPoint
 10
-6902.92162409089
 20
6717138.8666495
  0
POINT
  5
20078
100
AcDbEntity
  8
0
100
AcDbPoint
 10
-6907.37440372262
 20
6717140.11946917
  0
POINT
  5
20079
100
AcDbEntity
  8
0
100
AcDbPoint
 10
-6911.0479469188
 20
6717141.55126331
  0
POINT
  5
2007A
100
AcDbEntity
  8
0
100
AcDbPoint
 10
-6913.16301724388
 20
6717143.34100634
  0
POINT
  5
2007B
100
AcDbEntity
  8
0
100
AcDbPoint
 10
-6915.16676807815
 20
6717145.48869849
  0
POINT
  5
2007C
100
AcDbEntity
  8
0
100
AcDbPoint
 10
-6916.0573240045
 20
6717148.17331449
  0
POINT
  5
2007D
100
AcDbEntity
  8
0
100
AcDbPoint
 10
-6917.05919942164
 20
6717149.96305897
  0
POINT
  5
2007E
100
AcDbEntity
  8
0
100
AcDbPoint
 10
-6917.39315789402
 20
6717152.82665096
  0
POINT
  5
2007F
100
AcDbEntity
  8
0
100
AcDbPoint
 10
-6918.50635280195
 20
6717155.33229479
  0
POINT
  5
20080
100
AcDbEntity
  8
0
100
AcDbPoint
 10
-6916.50260196767
 20
6717158.19588867
  0
POINT
  5
20081
100
AcDbEntity
  8
0
100
AcDbPoint
 10
-6916.0573240045
 20
6717159.98563535
  0
POINT
  5
20082
100
AcDbEntity
  8
0
100
AcDbPoint
 10
-6916.50260196767
 20
6717161.77538244
  0
POINT
  5
20083
100
AcDbEntity
  8
0
100
AcDbPoint
 10
-6914.94412909657
 20
6717163.02820563
  0
POINT
  5
20084
100
AcDbEntity
  8
0
100
AcDbPoint
 10
-6913.27433673467
 20
6717164.4600038
  0
POINT
  5
20085
100
AcDbEntity
  8
0
100
AcDbPoint
 10
-6912.04982233594
 20
6717166.07077704
  0
POINT
  5
20086
100
AcDbEntity
  8
0
100
AcDbPoint
 10
-6911.60454437277
 20
6717169.65027426
  0
POINT
  5
20087
100
AcDbEntity
  8
0
100
AcDbPoint
 10
-6912.94037826229
 20
6717171.44002347
  0
POINT
  5
20088
100
AcDbEntity
  8
0
100
AcDbPoint
 10
-6918.17239432957
 20
6717174.30362301
  0
POINT
  5
20089
100
AcDbEntity
  8
0
100
AcDbPoint
 10
-6919.3969087283
 20
6717177.70414878
  0
POINT
  5
2008A
100
AcDbEntity
  8
0
100
AcDbPoint
 10
-6919.61954770988
 20
6717180.92570082
  0
POINT
  5
2008B
100
AcDbEntity
  8
0
100
AcDbPoint
 10
-6919.95350618227
 20
6717184.50520457
  0
POINT
  5
2008C
100
AcDbEntity
  8
0
100
AcDbPoint
 10
-6921.62329854416
 20
6717187.18983342
  0
POINT
  5
2008D
100
AcDbEntity
  8
0
100
AcDbPoint
 10
-6924.07232734162
 20
6717189.87446316
  0
POINT
  5
2008E
100
AcDbEntity
  8
0
100
AcDbPoint
 10
-6924.96288326796
 20
6717192.02216758
  0
POINT
  5
2008F
100
AcDbEntity
  8
0
100
AcDbPoint
 10
-6926.0760781759
 20
6717193.99089714
  0
POINT
  5
20090
100
AcDbEntity
  8
0
100
AcDbPoint
 10
-6927.18927308383
 20
6717195.60167622
  0
POINT
  5
20091
100
AcDbEntity
  8
0
100
AcDbPoint
 10
-6927.96850951938
 20
6717197.03348011
  0
POINT
  5
20092
100
AcDbEntity
  8
0
100
AcDbPoint
 10
-6928.85906544573
 20
6717198.82323533
  0
POINT
  5
20093
100
AcDbEntity
  8
0
100
AcDbPoint
 10
-6930.41753831683
 20
6717200.61299095
  0
POINT
  5
20094
100
AcDbEntity
  8
0
100
AcDbPoint
 10
-6931.64205271556
 20
6717201.5078689
  0
POINT
  5
20095
100
AcDbEntity
  8
0
100
AcDbPoint
 10
-6932.6439281327
 20
6717203.65557639
  0
POINT
  5
20096
100
AcDbEntity
  8
0
100
AcDbPoint
 10
-6933.20052558666
 20
6717205.0873817
  0
POINT
  5
20097
100
AcDbEntity
  8
0
100
AcDbPoint
 10
-6934.3137204946
 20
6717208.66689608
  0
POINT
  5
20098
100
AcDbEntity
  8
0
100
AcDbPoint
 10
-6934.09108151301
 20
6717209.56177492
  0
POINT
  5
20099
100
AcDbEntity
  8
0
100
AcDbPoint
 10
-6934.42503998539
 20
6717211.35153289
  0
POINT
  5
2009A
100
AcDbEntity
  8
0
100
AcDbPoint
 10
-6935.42691540253
 20
6717214.03617059
  0
POINT
  5
2009B
100
AcDbEntity
  8
0
100
AcDbPoint
 10
-6935.76087387491
 20
6717219.76340064
  0
POINT
  5
2009C
100
AcDbEntity
  8
0
100
AcDbPoint
 10
-6934.42503998539
 20
6717221.55316085
  0
POINT
  5
2009D
100
AcDbEntity
  8
0
100
AcDbPoint
 10
-6935.76087387491
 20
6717224.77473023
  0
POINT
  5
2009E
100
AcDbEntity
  8
0
100
AcDbPoint
 10
-6934.42503998539
 20
6717226.02756311
  0
POINT
  5
2009F
100
AcDbEntity
  8
0
100
AcDbPoint
 10
-6934.98163743936
 20
6717227.45937235
  0
POINT
  5
200A0
100
AcDbEntity
  8
0
100
AcDbPoint
 10
-6935.76087387491
 20
6717229.24913426
  0
POINT
  5
200A1
100
AcDbEntity
  8
0
100
AcDbPoint
 10
-6936.31747132888
 20
6717231.03889656
  0
POINT
  5
200A2
100
AcDbEntity
  8
0
100
AcDbPoint
 10
-6938.76650012633
 20
6717235.51330403
  0
POINT
  5
200A3
100
AcDbEntity
  8
0
100
AcDbPoint
 10
-6939.87969503426
 20
6717237.66102049
  0
POINT
  5
200A4
100
AcDbEntity
  8
0
100
AcDbPoint
 10
-6940.77025096061
 20
6717240.34566686
  0
POINT
  5
200A5
100
AcDbEntity
  8
0
100
AcDbPoint
 10
-6941.88344586854
 20
6717242.31440809
  0
POINT
  5
200A6
100
AcDbEntity
  8
0
100
AcDbPoint
 10
-6942.44004332251
 20
6717244.10417326
  0
POINT
  5
200A7
100
AcDbEntity
  8
0
100
AcDbPoint
 10
-6943.21927975806
 20
6717245.89393883
  0
POINT
  5
200A8
100
AcDbEntity
  8
0
100
AcDbPoint
 10
-6942.77400179489
 20
6717246.60984516
  0
POINT
  5
200A9
100
AcDbEntity
  8
0
100
AcDbPoint
 10
-6942.21740434092
 20
6717249.29449448
  0
POINT
  5
200AA
100
AcDbEntity
  8
0
100
AcDbPoint
 10
-6941.54948739616
 20
6717251.26323788
  0
POINT
  5
200AB
100
AcDbEntity
  8
0
100
AcDbPoint
 10
-6940.54761197902
 20
6717254.30584224
  0
POINT
  5
200AC
100
AcDbEntity
  8
0
100
AcDbPoint
 10
-6938.54386114474
 20
6717257.34844775
  0
POINT
  5
200AD
100
AcDbEntity
  8
0
100
AcDbPoint
 10
-6935.53823489332
 20
6717260.21207749
  0
POINT
  5
200AE
100
AcDbEntity
  8
0
100
AcDbPoint
 10
-6936.31747132888
 20
6717265.40240898
  0
POINT
  5
200AF
100
AcDbEntity
  8
0
100
AcDbPoint
 10
-6939.87969503426
 20
6717266.47627107
  0
POINT
  5
200B0
100
AcDbEntity
  8
0
100
AcDbPoint
 10
-6941.66080688695
 20
6717268.08706449
  0
POINT
  5
200B1
100
AcDbEntity
  8
0
100
AcDbPoint
 10
-6942.99664077647
 20
6717269.51888112
  0
POINT
  5
200B2
100
AcDbEntity
  8
0
100
AcDbPoint
 10
-6944.44379415679
 20
6717270.05581243
  0
POINT
  5
200B3
100
AcDbEntity
  8
0
100
AcDbPoint
 10
-6947.67205938979
 20
6717270.05581243
  0
POINT
  5
200B4
100
AcDbEntity
  8
0
100
AcDbPoint
 10
-6950.56636615042
 20
6717269.87683532
  0
POINT
  5
200B5
100
AcDbEntity
  8
0
100
AcDbPoint
 10
-6952.68143647549
 20
6717268.6239957
  0
POINT
  5
200B6
100
AcDbEntity
  8
0
100
AcDbPoint
 10
-6956.57761865325
 20
6717266.83422514
  0
POINT
  5
200B7
100
AcDbEntity
  8
0
100
AcDbPoint
 10
-6966.37373384306
 20
6717265.04445498
  0
POINT
  5
200B8
100
AcDbEntity
  8
0
100
AcDbPoint
 10
-6969.37936009448
 20
6717267.37115627
  0
POINT
  5
200B9
100
AcDbEntity
  8
0
100
AcDbPoint
 10
-6970.26991602082
 20
6717270.05581243
  0
POINT
  5
200BA
100
AcDbEntity
  8
0
100
AcDbPoint
 10
-6968.37748467734
 20
6717270.77172089
  0
POINT
  5
200BB
100
AcDbEntity
  8
0
100
AcDbPoint
 10
-6967.48692875099
 20
6717271.30865227
  0
POINT
  5
200BC
100
AcDbEntity
  8
0
100
AcDbPoint
 10
-6968.93408213131
 20
6717273.09842382
  0
POINT
  5
200BD
100
AcDbEntity
  8
0
100
AcDbPoint
 10
-6969.93595754845
 20
6717273.99330973
  0
POINT
  5
200BE
100
AcDbEntity
  8
0
100
AcDbPoint
 10
-6970.04727703924
 20
6717275.24615018
  0
POINT
  5
200BF
100
AcDbEntity
  8
0
100
AcDbPoint
 10
-6970.04727703924
 20
6717276.32001358
  0
POINT
  5
200C0
100
AcDbEntity
  8
0
100
AcDbPoint
 10
-6969.49067958527
 20
6717277.57285439
  0
POINT
  5
200C1
100
AcDbEntity
  8
0
100
AcDbPoint
 10
-6968.82276264051
 20
6717278.4677408
  0
POINT
  5
200C2
100
AcDbEntity
  8
0
100
AcDbPoint
 10
-6971.16047194717
 20
6717282.04728742
  0
POINT
  5
200C3
100
AcDbEntity
  8
0
100
AcDbPoint
 10
-6973.83213972621
 20
6717285.08990328
  0
POINT
  5
200C4
100
AcDbEntity
  8
0
100
AcDbPoint
 10
-6975.83589056049
 20
6717287.4166103
  0
POINT
  5
200C5
100
AcDbEntity
  8
0
100
AcDbPoint
 10
-6979.50943375667
 20
6717292.42798152
  0
POINT
  5
200C6
100
AcDbEntity
  8
0
100
AcDbPoint
 10
-6981.62450408174
 20
6717295.47060126
  0
POINT
  5
200C7
100
AcDbEntity
  8
0
100
AcDbPoint
 10
-6982.51506000809
 20
6717297.61833353
  0
POINT
  5
200C8
100
AcDbEntity
  8
0
100
AcDbPoint
 10
-6983.8508938976
 20
6717300.48197743
  0
POINT
  5
200C9
100
AcDbEntity
  8
0
100
AcDbPoint
 10
-6985.6320057503
 20
6717304.06153373
  0
POINT
  5
200CA
100
AcDbEntity
  8
0
100
AcDbPoint
 10
-6986.74520065823
 20
6717306.56722408
  0
POINT
  5
200CB
100
AcDbEntity
  8
0
100
AcDbPoint
 10
-6987.74707607537
 20
6717308.53598131
  0
POINT
  5
200CC
100
AcDbEntity
  8
0
100
AcDbPoint
 10
-6988.41499302013
 20
6717310.68371703
  0
POINT
  5
200CD
100
AcDbEntity
  8
0
100
AcDbPoint
 10
-6988.8602709833
 20
6717311.93656312
  0
POINT
  5
200CE
100
AcDbEntity
  8
0
100
AcDbPoint
 10
-6989.52818792806
 20
6717312.47349722
  0
POINT
  5
200CF
100
AcDbEntity
  8
0
100
AcDbPoint
 10
-6990.08478538203
 20
6717312.11554115
  0
POINT
  5
200D0
100
AcDbEntity
  8
0
100
AcDbPoint
 10
-6992.53381417948
 20
6717312.11554115
  0
POINT
  5
200D1
100
AcDbEntity
  8
0
100
AcDbPoint
 10
-6992.31117519789
 20
6717314.80021206
  0
POINT
  5
200D2
100
AcDbEntity
  8
0
100
AcDbPoint
 10
-6991.19798028996
 20
6717316.94794943
  0
POINT
  5
200D3
100
AcDbEntity
  8
0
100
AcDbPoint
 10
-6990.30742436361
 20
6717318.73773099
  0
POINT
  5
200D4
100
AcDbEntity
  8
0
100
AcDbPoint
 10
-6988.9715904741
 20
6717319.63262193
  0
POINT
  5
200D5
100
AcDbEntity
  8
0
100
AcDbPoint
 10
-6988.08103454775
 20
6717320.16955653
  0
POINT
  5
200D6
100
AcDbEntity
  8
0
100
AcDbPoint
 10
-6987.1904786214
 20
6717320.52751296
  0
POINT
  5
200D7
100
AcDbEntity
  8
0
100
AcDbPoint
 10
-6986.18860320426
 20
6717321.06444762
  0
POINT
  5
200D8
100
AcDbEntity
  8
0
100
AcDbPoint
 10
-6985.5206862595
 20
6717321.95933881
  0
POINT
  5
200D9
100
AcDbEntity
  8
0
100
AcDbPoint
 10
-6983.07165746205
 20
6717321.95933881
  0
POINT
  5
200DA
100
AcDbEntity
  8
0
100
AcDbPoint
 10
-6980.5113091738
 20
6717321.78036056
  0
POINT
  5
200DB
100
AcDbEntity
  8
0
100
AcDbPoint
 10
-6976.39248801446
 20
6717320.16955653
  0
POINT
  5
200DC
100
AcDbEntity
  8
0
100
AcDbPoint
 10
-6970.49255500241
 20
6717320.16955653
  0
POINT
  5
200DD
100
AcDbEntity
  8
0
100
AcDbPoint
 10
-6966.93033129703
 20
6717320.16955653
  0
POINT
  5
200DE
100
AcDbEntity
  8
0
100
AcDbPoint
 10
-6964.14734402719
 20
6717319.99057833
  0
POINT
  5
200DF
100
AcDbEntity
  8
0
100
AcDbPoint
 10
-6961.69831522974
 20
6717319.99057833
  0
POINT
  5
200E0
100
AcDbEntity
  8
0
100
AcDbPoint
 10
-6958.35873050594
 20
6717319.63262193
  0
POINT
  5
200E1
100
AcDbEntity
  8
0
100
AcDbPoint
 10
-6954.46254832818
 20
6717320.52751296
  0
POINT
  5
200E2
100
AcDbEntity
  8
0
100
AcDbPoint
 10
-6950.789005132
 20
6717320.16955653
  0
POINT
  5
200E3
100
AcDbEntity
  8
0
100
AcDbPoint
 10
-6947.11546193582
 20
6717320.52751296
  0
POINT
  5
200E4
100
AcDbEntity
  8
0
100
AcDbPoint
 10
-6944.33247466599
 20
6717320.8854694
  0
POINT
  5
200E5
100
AcDbEntity
  8
0
100
AcDbPoint
 10
-6941.54948739616
 20
6717321.78036056
  0
POINT
  5
200E6
100
AcDbEntity
  8
0
100
AcDbPoint
 10
-6940.54761197902
 20
6717321.78036056
  0
POINT
  5
200E7
100
AcDbEntity
  8
0
100
AcDbPoint
 10
-6939.32309758029
 20
6717322.67525183
  0
POINT
  5
200E8
100
AcDbEntity
  8
0
100
AcDbPoint
 10
-6938.20990267236
 20
6717323.74912148
  0
POINT
  5
200E9
100
AcDbEntity
  8
0
100
AcDbPoint
 10
-6939.10045859871
 20
6717328.0446015
  0
POINT
  5
200EA
100
AcDbEntity
  8
0
100
AcDbPoint
 10
-6938.32122216316
 20
6717331.6241699
  0
POINT
  5
200EB
100
AcDbEntity
  8
0
100
AcDbPoint
 10
-6938.20990267236
 20
6717336.09863263
  0
POINT
  5
200EC
100
AcDbEntity
  8
0
100
AcDbPoint
 10
-6938.54386114474
 20
6717337.17250405
  0
POINT
  5
200ED
100
AcDbEntity
  8
0
100
AcDbPoint
 10
-6939.65705605268
 20
6717337.53046122
  0
POINT
  5
200EE
100
AcDbEntity
  8
0
100
AcDbPoint
 10
-6938.20990267236
 20
6717338.96229006
  0
POINT
  5
200EF
100
AcDbEntity
  8
0
100
AcDbPoint
 10
-6937.09670776443
 20
6717339.85718322
  0
POINT
  5
200F0
100
AcDbEntity
  8
0
100
AcDbPoint
 10
-6935.53823489332
 20
6717340.2151405
  0
POINT
  5
200F1
100
AcDbEntity
  8
0
100
AcDbPoint
 10
-6934.09108151301
 20
6717340.2151405
  0
POINT
  5
200F2
100
AcDbEntity
  8
0
100
AcDbPoint
 10
-6932.42128915111
 20
6717339.85718322
  0
POINT
  5
200F3
100
AcDbEntity
  8
0
100
AcDbPoint
 10
-6930.52885780763
 20
6717339.85718322
  0
POINT
  5
200F4
100
AcDbEntity
  8
0
100
AcDbPoint
 10
-6928.52510697335
 20
6717339.67820458
  0
POINT
  5
200F5
100
AcDbEntity
  8
0
100
AcDbPoint
 10
-6926.85531461145
 20
6717339.85718322
  0
POINT
  5
200F6
100
AcDbEntity
  8
0
100
AcDbPoint
 10
-6925.18552224955
 20
6717339.67820458
  0
POINT
  5
200F7
100
AcDbEntity
  8
0
100
AcDbPoint
 10
-6924.62892479558
 20
6717341.46799114
  0
POINT
  5
200F8
100
AcDbEntity
  8
0
100
AcDbPoint
 10
-6925.51948072193
 20
6717343.2577781
  0
POINT
  5
200F9
100
AcDbEntity
  8
0
100
AcDbPoint
 10
-6925.74211970351
 20
6717345.04756545
  0
POINT
  5
200FA
100
AcDbEntity
  8
0
100
AcDbPoint
 10
-6926.0760781759
 20
6717346.47939561
  0
POINT
  5
200FB
100
AcDbEntity
  8
0
100
AcDbPoint
 10
-6926.29871715748
 20
6717348.26918367
  0
POINT
  5
200FC
100
AcDbEntity
  8
0
100
AcDbPoint
 10
-6927.96850951938
 20
6717352.3856977
  0
POINT
  5
200FD
100
AcDbEntity
  8
0
100
AcDbPoint
 10
-6931.64205271556
 20
6717356.86017183
  0
POINT
  5
200FE
100
AcDbEntity
  8
0
100
AcDbPoint
 10
-6935.42691540253
 20
6717362.0505649
  0
POINT
  5
200FF
100
AcDbEntity
  8
0
100
AcDbPoint
 10
-6936.87406878284
 20
6717364.01933555
  0
POINT
  5
20100
100
AcDbEntity
  8
0
100
AcDbPoint
 10
-6938.32122216316
 20
6717365.27218984
  0
POINT
  5
20101
100
AcDbEntity
  8
0
100
AcDbPoint
 10
-6940.43629248823
 20
6717366.52504433
  0
POINT
  5
20102
100
AcDbEntity
  8
0
100
AcDbPoint
 10
-6942.99664077647
 20
6717369.20973318
  0
POINT
  5
20103
100
AcDbEntity
  8
0
100
AcDbPoint
 10
-6943.55323823044
 20
6717367.59891977
  0
POINT
  5
20104
100
AcDbEntity
  8
0
100
AcDbPoint
 10
-6940.21365350664
 20
6717370.99952623
  0
POINT
  5
20105
100
AcDbEntity
  8
0
100
AcDbPoint
 10
-6935.76087387491
 20
6717369.20973318
  0
POINT
  5
20106
100
AcDbEntity
  8
0
100
AcDbPoint
 10
-6931.08545526159
 20
6717370.28360896
  0
POINT
  5
20107
100
AcDbEntity
  8
0
100
AcDbPoint
 10
-6930.19489933525
 20
6717372.78931968
  0
POINT
  5
20108
100
AcDbEntity
  8
0
100
AcDbPoint
 10
-6928.30246799176
 20
6717374.22115472
  0
POINT
  5
20109
100
AcDbEntity
  8
0
100
AcDbPoint
 10
-6925.74211970351
 20
6717373.32625779
  0
POINT
  5
2010A
100
AcDbEntity
  8
0
100
AcDbPoint
 10
-6924.406285814
 20
6717373.86319593
  0
POINT
  5
2010B
100
AcDbEntity
  8
0
100
AcDbPoint
 10
-6918.50635280195
 20
6717373.32625779
  0
POINT
  5
2010C
100
AcDbEntity
  8
0
100
AcDbPoint
 10
-6912.38378080832
 20
6717372.96829904
  0
POINT
  5
2010D
100
AcDbEntity
  8
0
100
AcDbPoint
 10
-6907.37440372262
 20
6717373.68421655
  0
POINT
  5
2010E
100
AcDbEntity
  8
0
100
AcDbPoint
 10
-6907.37440372262
 20
6717373.68421655
  0
POINT
  5
2010F
100
AcDbEntity
  8
0
100
AcDbPoint
 10
-6893.79342584585
 20
6717373.68421655
  0
POINT
  5
20110
100
AcDbEntity
  8
0
100
AcDbPoint
 10
-6890.34252163125
 20
6717373.86319593
  0
POINT
  5
20111
100
AcDbEntity
  8
0
100
AcDbPoint
 10
-6887.33689537984
 20
6717374.22115472
  0
POINT
  5
20112
100
AcDbEntity
  8
0
100
AcDbPoint
 10
-6884.33126912842
 20
6717374.75809292
  0
POINT
  5
20113
100
AcDbEntity
  8
0
100
AcDbPoint
 10
-6880.88036491383
 20
6717374.75809292
  0
POINT
  5
20114
100
AcDbEntity
  8
0
100
AcDbPoint
 10
-6875.98230731892
 20
6717375.47401058
  0
POINT
  5
20115
100
AcDbEntity
  8
0
100
AcDbPoint
 10
-6871.97480565036
 20
6717376.36890775
  0
POINT
  5
20116
100
AcDbEntity
  8
0
100
AcDbPoint
 10
-6868.63522092657
 20
6717376.90584609
  0
POINT
  5
20117
100
AcDbEntity
  8
0
100
AcDbPoint
 10
-6865.07299722118
 20
6717377.26380501
  0
POINT
  5
20118
100
AcDbEntity
  8
0
100
AcDbPoint
 10
-6862.06737096976
 20
6717376.90584609
  0
POINT
  5
20119
100
AcDbEntity
  8
0
100
AcDbPoint
 10
-6858.61646675517
 20
6717379.23257934
  0
POINT
  5
2011A
100
AcDbEntity
  8
0
100
AcDbPoint
 10
-6851.93729730758
 20
6717376.54788719
  0
POINT
  5
2011B
100
AcDbEntity
  8
0
100
AcDbPoint
 10
-6850.37882443647
 20
6717376.36890775
  0
POINT
  5
2011C
100
AcDbEntity
  8
0
100
AcDbPoint
 10
-6848.93167105616
 20
6717375.47401058
  0
POINT
  5
2011D
100
AcDbEntity
  8
0
100
AcDbPoint
 10
-6847.26187869426
 20
6717377.44278448
  0
POINT
  5
2011E
100
AcDbEntity
  8
0
100
AcDbPoint
 10
-6844.81284989681
 20
6717379.05359984
  0
POINT
  5
2011F
100
AcDbEntity
  8
0
100
AcDbPoint
 10
-6842.25250160856
 20
6717380.12747692
  0
POINT
  5
20120
100
AcDbEntity
  8
0
100
AcDbPoint
 10
-6840.91666771904
 20
6717386.39176272
  0
POINT
  5
20121
100
AcDbEntity
  8
0
100
AcDbPoint
 10
-6839.80347281111
 20
6717387.64462046
  0
POINT
  5
20122
100
AcDbEntity
  8
0
100
AcDbPoint
 10
-6838.91291688476
 20
6717389.79237703
  0
POINT
  5
20123
100
AcDbEntity
  8
0
100
AcDbPoint
 10
-6837.79972197683
 20
6717391.76115439
  0
POINT
  5
20124
100
AcDbEntity
  8
0
100
AcDbPoint
 10
-6835.57333216096
 20
6717394.44585155
  0
POINT
  5
20125
100
AcDbEntity
  8
0
100
AcDbPoint
 10
-6834.12617878065
 20
6717399.63626857
  0
POINT
  5
20126
100
AcDbEntity
  8
0
100
AcDbPoint
 10
-6835.90729063334
 20
6717405.00566896
  0
POINT
  5
20127
100
AcDbEntity
  8
0
100
AcDbPoint
 10
-6836.6865270689
 20
6717407.86935062
  0
POINT
  5
20128
100
AcDbEntity
  8
0
100
AcDbPoint
 10
-6837.46576350445
 20
6717409.480172
  0
POINT
  5
20129
100
AcDbEntity
  8
0
100
AcDbPoint
 10
-6837.46576350445
 20
6717411.2699739
  0
POINT
  5
2012A
100
AcDbEntity
  8
0
100
AcDbPoint
 10
-6837.24312452286
 20
6717412.70181571
  0
POINT
  5
2012B
100
AcDbEntity
  8
0
100
AcDbPoint
 10
-6837.79972197683
 20
6717415.38651977
  0
POINT
  5
2012C
100
AcDbEntity
  8
0
100
AcDbPoint
 10
-6837.24312452286
 20
6717417.713264
  0
POINT
  5
2012D
100
AcDbEntity
  8
0
100
AcDbPoint
 10
-6835.016734707
 20
6717419.32408733
  0
POINT
  5
2012E
100
AcDbEntity
  8
0
100
AcDbPoint
 10
-6834.23749827145
 20
6717420.21898931
  0
POINT
  5
2012F
100
AcDbEntity
  8
0
100
AcDbPoint
 10
-6834.12617878065
 20
6717420.21898931
  0
POINT
  5
20130
100
AcDbEntity
  8
0
100
AcDbPoint
 10
-6834.23749827145
 20
6717422.18777402
  0
POINT
  5
20131
100
AcDbEntity
  8
0
100
AcDbPoint
 10
-6841.13930670063
 20
6717427.37820872
  0
POINT
  5
20132
100
AcDbEntity
  8
0
100
AcDbPoint
 10
-6842.80909906253
 20
6717430.24189824
  0
POINT
  5
20133
100
AcDbEntity
  8
0
100
AcDbPoint
 10
-6844.47889142443
 20
6717432.38966604
  0
POINT
  5
20134
100
AcDbEntity
  8
0
100
AcDbPoint
 10
-6846.37132276791
 20
6717435.61131881
  0
POINT
  5
20135
100
AcDbEntity
  8
0
100
AcDbPoint
 10
-6848.04111512981
 20
6717438.65399204
  0
POINT
  5
20136
100
AcDbEntity
  8
0
100
AcDbPoint
 10
-6849.8222269825
 20
6717441.33870466
  0
POINT
  5
20137
100
AcDbEntity
  8
0
100
AcDbPoint
 10
-6851.4920193444
 20
6717445.45526572
  0
POINT
  5
20138
100
AcDbEntity
  8
0
100
AcDbPoint
 10
-6853.05049221551
 20
6717449.92979098
  0
POINT
  5
20139
100
AcDbEntity
  8
0
100
AcDbPoint
 10
-6852.27125577995
 20
6717453.86737523
  0
POINT
  5
2013A
100
AcDbEntity
  8
0
100
AcDbPoint
 10
-6853.71840916027
 20
6717454.40431869
  0
POINT
  5
2013B
100
AcDbEntity
  8
0
100
AcDbPoint
 10
-6854.49764559582
 20
6717456.55209286
  0
POINT
  5
2013C
100
AcDbEntity
  8
0
100
AcDbPoint
 10
-6854.8316040682
 20
6717457.44699894
  0
POINT
  5
2013D
100
AcDbEntity
  8
0
100
AcDbPoint
 10
-6852.27125577995
 20
6717459.59477392
  0
POINT
  5
2013E
100
AcDbEntity
  8
0
100
AcDbPoint
 10
-6850.37882443647
 20
6717460.13171775
  0
POINT
  5
2013F
100
AcDbEntity
  8
0
100
AcDbPoint
 10
-6850.60146341806
 20
6717461.56356814
  0
POINT
  5
20140
100
AcDbEntity
  8
0
100
AcDbPoint
 10
-6850.82410239964
 20
6717463.17440014
  0
POINT
  5
20141
100
AcDbEntity
  8
0
100
AcDbPoint
 10
-6850.37882443647
 20
6717463.7113442
  0
POINT
  5
20142
100
AcDbEntity
  8
0
100
AcDbPoint
 10
-6850.04486596409
 20
6717464.24828831
  0
POINT
  5
20143
100
AcDbEntity
  8
0
100
AcDbPoint
 10
-6850.04486596409
 20
6717465.50115802
  0
POINT
  5
20144
100
AcDbEntity
  8
0
100
AcDbPoint
 10
-6850.04486596409
 20
6717466.39606508
  0
POINT
  5
20145
100
AcDbEntity
  8
0
100
AcDbPoint
 10
-6850.26750494568
 20
6717468.18587949
  0
POINT
  5
20146
100
AcDbEntity
  8
0
100
AcDbPoint
 10
-6850.93542189043
 20
6717469.97569429
  0
POINT
  5
20147
100
AcDbEntity
  8
0
100
AcDbPoint
 10
-6850.93542189043
 20
6717471.40754641
  0
POINT
  5
20148
100
AcDbEntity
  8
0
100
AcDbPoint
 10
-6850.60146341806
 20
6717475.34514105
  0
POINT
  5
20149
100
AcDbEntity
  8
0
100
AcDbPoint
 10
-6852.27125577995
 20
6717478.56681081
  0
POINT
  5
2014A
100
AcDbEntity
  8
0
100
AcDbPoint
 10
-6853.94104814185
 20
6717483.75728144
  0
POINT
  5
2014B
100
AcDbEntity
  8
0
100
AcDbPoint
 10
-6855.38820152217
 20
6717487.51590016
  0
POINT
  5
2014C
100
AcDbEntity
  8
0
100
AcDbPoint
 10
-6856.5013964301
 20
6717491.45350259
  0
POINT
  5
2014D
100
AcDbEntity
  8
0
100
AcDbPoint
 10
-6856.16743795772
 20
6717493.60128653
  0
POINT
  5
2014E
100
AcDbEntity
  8
0
100
AcDbPoint
 10
-6855.94479897613
 20
6717496.46499934
  0
POINT
  5
2014F
100
AcDbEntity
  8
0
100
AcDbPoint
 10
-6855.38820152217
 20
6717499.5076953
  0
POINT
  5
20150
100
AcDbEntity
  8
0
100
AcDbPoint
 10
-6854.16368712344
 20
6717501.65548137
  0
POINT
  5
20151
100
AcDbEntity
  8
0
100
AcDbPoint
 10
-6852.82785323392
 20
6717503.98225025
  0
POINT
  5
20152
100
AcDbEntity
  8
0
100
AcDbPoint
 10
-6852.60521425233
 20
6717506.6669844
  0
POINT
  5
20153
100
AcDbEntity
  8
0
100
AcDbPoint
 10
-6851.4920193444
 20
6717508.09884297
  0
POINT
  5
20154
100
AcDbEntity
  8
0
100
AcDbPoint
 10
-6844.14493295205
 20
6717512.93136752
  0
POINT
  5
20155
100
AcDbEntity
  8
0
100
AcDbPoint
 10
-6838.3563194308
 20
6717514.72119215
  0
POINT
  5
20156
100
AcDbEntity
  8
0
100
AcDbPoint
 10
-6832.56770590955
 20
6717514.72119215
  0
POINT
  5
20157
100
AcDbEntity
  8
0
100
AcDbPoint
 10
-6828.11492627781
 20
6717512.57340264
  0
POINT
  5
20158
100
AcDbEntity
  8
0
100
AcDbPoint
 10
-6825.55457798957
 20
6717508.81477235
  0
POINT
  5
20159
100
AcDbEntity
  8
0
100
AcDbPoint
 10
-6823.10554919212
 20
6717502.72937461
  0
POINT
  5
2015A
100
AcDbEntity
  8
0
100
AcDbPoint
 10
-6820.87915937625
 20
6717497.71787401
  0
POINT
  5
2015B
100
AcDbEntity
  8
0
100
AcDbPoint
 10
-6825.33193900798
 20
6717498.25482036
  0
POINT
  5
2015C
100
AcDbEntity
  8
0
100
AcDbPoint
 10
-6828.11492627781
 20
6717500.04464176
  0
POINT
  5
2015D
100
AcDbEntity
  8
0
100
AcDbPoint
 10
-6831.45451100161
 20
6717503.98225025
  0
POINT
  5
2015E
100
AcDbEntity
  8
0
100
AcDbPoint
 10
-6835.016734707
 20
6717508.09884297
  0
POINT
  5
2015F
100
AcDbEntity
  8
0
100
AcDbPoint
 10
-6836.46388808731
 20
6717508.81477235
  0
POINT
  5
20160
100
AcDbEntity
  8
0
100
AcDbPoint
 10
-6838.13368044921
 20
6717512.93136752
  0
POINT
  5
20161
100
AcDbEntity
  8
0
100
AcDbPoint
 10
-6838.91291688476
 20
6717514.72119215
  0
POINT
  5
20162
100
AcDbEntity
  8
0
100
AcDbPoint
 10
-6839.46951433873
 20
6717516.51101718
  0
POINT
  5
20163
100
AcDbEntity
  8
0
100
AcDbPoint
 10
-6839.80347281111
 20
6717520.09066841
  0
POINT
  5
20164
100
AcDbEntity
  8
0
100
AcDbPoint
 10
-6840.02611179269
 20
6717524.20726928
  0
POINT
  5
20165
100
AcDbEntity
  8
0
100
AcDbPoint
 10
-6840.02611179269
 20
6717527.78692389
  0
POINT
  5
20166
100
AcDbEntity
  8
0
100
AcDbPoint
 10
-6840.36007026508
 20
6717530.82963156
  0
POINT
  5
20167
100
AcDbEntity
  8
0
100
AcDbPoint
 10
-6840.91666771904
 20
6717532.97742588
  0
POINT
  5
20168
100
AcDbEntity
  8
0
100
AcDbPoint
 10
-6841.13930670063
 20
6717533.51437455
  0
POINT
  5
20169
100
AcDbEntity
  8
0
100
AcDbPoint
 10
-6839.69215332031
 20
6717532.97742588
  0
POINT
  5
2016A
100
AcDbEntity
  8
0
100
AcDbPoint
 10
-6841.47326517301
 20
6717534.05132326
  0
POINT
  5
2016B
100
AcDbEntity
  8
0
100
AcDbPoint
 10
-6846.14868378632
 20
6717538.34691418
  0
POINT
  5
2016C
100
AcDbEntity
  8
0
100
AcDbPoint
 10
-6848.37507360219
 20
6717541.21064272
  0
POINT
  5
2016D
100
AcDbEntity
  8
0
100
AcDbPoint
 10
-6853.05049221551
 20
6717544.61132167
  0
POINT
  5
2016E
100
AcDbEntity
  8
0
100
AcDbPoint
 10
-6851.15806087202
 20
6717541.92657501
  0
POINT
  5
2016F
100
AcDbEntity
  8
0
100
AcDbPoint
 10
-6852.60521425233
 20
6717544.61132167
  0
POINT
  5
20170
100
AcDbEntity
  8
0
100
AcDbPoint
 10
-6853.71840916027
 20
6717547.83301882
  0
POINT
  5
20171
100
AcDbEntity
  8
0
100
AcDbPoint
 10
-6853.94104814185
 20
6717550.15980089
  0
POINT
  5
20172
100
AcDbEntity
  8
0
100
AcDbPoint
 10
-6855.27688203137
 20
6717553.20251691
  0
POINT
  5
20173
100
AcDbEntity
  8
0
100
AcDbPoint
 10
-6856.39007693931
 20
6717554.99235039
  0
POINT
  5
20174
100
AcDbEntity
  8
0
100
AcDbPoint
 10
-6857.05799388406
 20
6717559.46693582
  0
POINT
  5
20175
100
AcDbEntity
  8
0
100
AcDbPoint
 10
-6858.61646675517
 20
6717561.6147377
  0
POINT
  5
20176
100
AcDbEntity
  8
0
100
AcDbPoint
 10
-6859.7296616631
 20
6717563.58355659
  0
POINT
  5
20177
100
AcDbEntity
  8
0
100
AcDbPoint
 10
-6858.72778624597
 20
6717565.19440876
  0
POINT
  5
20178
100
AcDbEntity
  8
0
100
AcDbPoint
 10
-6857.50327184724
 20
6717564.47847442
  0
POINT
  5
20179
100
AcDbEntity
  8
0
100
AcDbPoint
 10
-6856.94667439327
 20
6717566.08932677
  0
POINT
  5
2017A
100
AcDbEntity
  8
0
100
AcDbPoint
 10
-6857.50327184724
 20
6717568.05814674
  0
POINT
  5
2017B
100
AcDbEntity
  8
0
100
AcDbPoint
 10
-6857.28063286565
 20
6717569.31103242
  0
POINT
  5
2017C
100
AcDbEntity
  8
0
100
AcDbPoint
 10
-6857.05799388406
 20
6717571.10086944
  0
POINT
  5
2017D
100
AcDbEntity
  8
0
100
AcDbPoint
 10
-6858.05986930121
 20
6717573.24867439
  0
POINT
  5
2017E
100
AcDbEntity
  8
0
100
AcDbPoint
 10
-6860.06362013548
 20
6717575.57546372
  0
POINT
  5
2017F
100
AcDbEntity
  8
0
100
AcDbPoint
 10
-6860.95417606183
 20
6717578.26022147
  0
POINT
  5
20180
100
AcDbEntity
  8
0
100
AcDbPoint
 10
-6860.06362013548
 20
6717582.19786776
  0
POINT
  5
20181
100
AcDbEntity
  8
0
100
AcDbPoint
 10
-6858.39382777358
 20
6717585.41957978
  0
POINT
  5
20182
100
AcDbEntity
  8
0
100
AcDbPoint
 10
-6855.61084050375
 20
6717589.53621367
  0
POINT
  5
20183
100
AcDbEntity
  8
0
100
AcDbPoint
 10
-6852.27125577995
 20
6717594.726755
  0
POINT
  5
20184
100
AcDbEntity
  8
0
100
AcDbPoint
 10
-6850.93542189043
 20
6717596.69558189
  0
POINT
  5
20185
100
AcDbEntity
  8
0
100
AcDbPoint
 10
-6855.83347948534
 20
6717596.51659761
  0
POINT
  5
20186
100
AcDbEntity
  8
0
100
AcDbPoint
 10
-6856.72403541169
 20
6717597.59050336
  0
POINT
  5
20187
100
AcDbEntity
  8
0
100
AcDbPoint
 10
-6856.72403541169
 20
6717597.41151906
  0
POINT
  5
20188
100
AcDbEntity
  8
0
100
AcDbPoint
 10
-6858.171188792
 20
6717599.3803466
  0
POINT
  5
20189
100
AcDbEntity
  8
0
100
AcDbPoint
 10
-6857.83723031962
 20
6717602.06511219
  0
POINT
  5
2018A
100
AcDbEntity
  8
0
100
AcDbPoint
 10
-6857.28063286565
 20
6717604.21292531
  0
POINT
  5
2018B
100
AcDbEntity
  8
0
100
AcDbPoint
 10
-6855.94479897613
 20
6717608.32956869
  0
POINT
  5
2018C
100
AcDbEntity
  8
0
100
AcDbPoint
 10
-6858.72778624597
 20
6717608.32956869
  0
POINT
  5
2018D
100
AcDbEntity
  8
0
100
AcDbPoint
 10
-6861.73341249738
 20
6717606.89769249
  0
POINT
  5
2018E
100
AcDbEntity
  8
0
100
AcDbPoint
 10
-6861.17681504342
 20
6717606.00277
  0
POINT
  5
2018F
100
AcDbEntity
  8
0
100
AcDbPoint
 10
-6863.95980231325
 20
6717607.43464604
  0
POINT
  5
20190
100
AcDbEntity
  8
0
100
AcDbPoint
 10
-6866.18619212911
 20
6717607.25566152
  0
POINT
  5
20191
100
AcDbEntity
  8
0
100
AcDbPoint
 10
-6867.29938703705
 20
6717608.32956869
  0
POINT
  5
20192
100
AcDbEntity
  8
0
100
AcDbPoint
 10
-6867.63334550943
 20
6717609.58246056
  0
POINT
  5
20193
100
AcDbEntity
  8
0
100
AcDbPoint
 10
-6868.41258194498
 20
6717611.73027566
  0
POINT
  5
20194
100
AcDbEntity
  8
0
100
AcDbPoint
 10
-6869.30313787132
 20
6717615.30996874
  0
POINT
  5
20195
100
AcDbEntity
  8
0
100
AcDbPoint
 10
-6869.52577685291
 20
6717617.2788006
  0
POINT
  5
20196
100
AcDbEntity
  8
0
100
AcDbPoint
 10
-6868.74654041736
 20
6717619.06864817
  0
POINT
  5
20197
100
AcDbEntity
  8
0
100
AcDbPoint
 10
-6867.85598449101
 20
6717620.67951131
  0
POINT
  5
20198
100
AcDbEntity
  8
0
100
AcDbPoint
 10
-6868.41258194498
 20
6717623.00631419
  0
POINT
  5
20199
100
AcDbEntity
  8
0
100
AcDbPoint
 10
-6868.63522092657
 20
6717624.43819322
  0
POINT
  5
2019A
100
AcDbEntity
  8
0
100
AcDbPoint
 10
-6870.08237430688
 20
6717627.48093698
  0
POINT
  5
2019B
100
AcDbEntity
  8
0
100
AcDbPoint
 10
-6870.97293023323
 20
6717629.27078679
  0
POINT
  5
2019C
100
AcDbEntity
  8
0
100
AcDbPoint
 10
-6870.86161074243
 20
6717630.52368189
  0
POINT
  5
2019D
100
AcDbEntity
  8
0
100
AcDbPoint
 10
-6870.86161074243
 20
6717631.06063699
  0
POINT
  5
2019E
100
AcDbEntity
  8
0
100
AcDbPoint
 10
-6869.7484158345
 20
6717631.41860707
  0
POINT
  5
2019F
100
AcDbEntity
  8
0
100
AcDbPoint
 10
-6868.18994296339
 20
6717631.95556224
  0
POINT
  5
201A0
100
AcDbEntity
  8
0
100
AcDbPoint
 10
-6867.29938703705
 20
6717632.49251743
  0
POINT
  5
201A1
100
AcDbEntity
  8
0
100
AcDbPoint
 10
-6866.4088311107
 20
6717633.20845774
  0
POINT
  5
201A2
100
AcDbEntity
  8
0
100
AcDbPoint
 10
-6865.40695569356
 20
6717632.85048758
  0
POINT
  5
201A3
100
AcDbEntity
  8
0
100
AcDbPoint
 10
-6865.07299722118
 20
6717632.85048758
  0
POINT
  5
201A4
100
AcDbEntity
  8
0
100
AcDbPoint
 10
-6863.95980231325
 20
6717633.20845774
  0
POINT
  5
201A5
100
AcDbEntity
  8
0
100
AcDbPoint
 10
-6860.28625911707
 20
6717635.17729394
  0
POINT
  5
201A6
100
AcDbEntity
  8
0
100
AcDbPoint
 10
-6858.95042522755
 20
6717635.89323449
  0
POINT
  5
201A7
100
AcDbEntity
  8
0
100
AcDbPoint
 10
-6857.83723031962
 20
6717636.43018994
  0
POINT
  5
201A8
100
AcDbEntity
  8
0
100
AcDbPoint
 10
-6856.72403541169
 20
6717636.78816027
  0
POINT
  5
201A9
100
AcDbEntity
  8
0
100
AcDbPoint
 10
-6855.38820152217
 20
6717636.78816027
  0
POINT
  5
201AA
100
AcDbEntity
  8
0
100
AcDbPoint
 10
-6853.94104814185
 20
6717636.96714543
  0
POINT
  5
201AB
100
AcDbEntity
  8
0
100
AcDbPoint
 10
-6852.49389476154
 20
6717637.32511578
  0
POINT
  5
201AC
100
AcDbEntity
  8
0
100
AcDbPoint
 10
-6851.38069985361
 20
6717637.68308614
  0
POINT
  5
201AD
100
AcDbEntity
  8
0
100
AcDbPoint
 10
-6850.04486596409
 20
6717638.22004171
  0
POINT
  5
201AE
100
AcDbEntity
  8
0
100
AcDbPoint
 10
-6848.93167105616
 20
6717638.22004171
  0
POINT
  5
201AF
100
AcDbEntity
  8
0
100
AcDbPoint
 10
-6848.04111512981
 20
6717638.22004171
  0
POINT
  5
201B0
100
AcDbEntity
  8
0
100
AcDbPoint
 10
-6847.03923971267
 20
6717638.22004171
  0
POINT
  5
201B1
100
AcDbEntity
  8
0
100
AcDbPoint
 10
-6845.25812785998
 20
6717637.86207133
  0
POINT
  5
201B2
100
AcDbEntity
  8
0
100
AcDbPoint
 10
-6838.02236095842
 20
6717631.41860707
  0
POINT
  5
201B3
100
AcDbEntity
  8
0
100
AcDbPoint
 10
-6831.34319151082
 20
6717624.79616301
  0
POINT
  5
201B4
100
AcDbEntity
  8
0
100
AcDbPoint
 10
-6824.9979805356
 20
6717617.99473958
  0
POINT
  5
201B5
100
AcDbEntity
  8
0
100
AcDbPoint
 10
-6819.43200599594
 20
6717611.90926027
  0
POINT
  5
201B6
100
AcDbEntity
  8
0
100
AcDbPoint
 10
-6812.41887807596
 20
6717605.46581655
  0
POINT
  5
201B7
100
AcDbEntity
  8
0
100
AcDbPoint
 10
-6804.96047219281
 20
6717599.3803466
  0
POINT
  5
201B8
100
AcDbEntity
  8
0
100
AcDbPoint
 10
-6796.27755191094
 20
6717592.93691279
  0
POINT
  5
201B9
100
AcDbEntity
  8
0
100
AcDbPoint
 10
-6786.81539519351
 20
6717587.20942034
  0
POINT
  5
201BA
100
AcDbEntity
  8
0
100
AcDbPoint
 10
-6777.1305994945
 20
6717581.83989984
  0
POINT
  5
201BB
100
AcDbEntity
  8
0
100
AcDbPoint
 10
-6766.88920634151
 20
6717577.00733441
  0
POINT
  5
201BC
100
AcDbEntity
  8
0
100
AcDbPoint
 10
-6747.63093443428
 20
6717568.05814674
  0
POINT
  5
201BD
100
AcDbEntity
  8
0
100
AcDbPoint
 10
-6745.96114207238
 20
6717561.79372122
  0
POINT
  5
201BE
100
AcDbEntity
  8
0
100
AcDbPoint
 10
-6745.96114207238
 20
6717564.29949085
  0
POINT
  5
201BF
100
AcDbEntity
  8
0
100
AcDbPoint
 10
-6745.07058614603
 20
6717574.32257708
  0
POINT
  5
201C0
100
AcDbEntity
  8
0
100
AcDbPoint
 10
-6747.63093443428
 20
6717580.4080283
  0
POINT
  5
201C1
100
AcDbEntity
  8
0
100
AcDbPoint
 10
-6749.85732425014
 20
6717588.46230897
  0
POINT
  5
201C2
100
AcDbEntity
  8
0
100
AcDbPoint
 10
-6753.41954795553
 20
6717598.84339359
  0
POINT
  5
201C3
100
AcDbEntity
  8
0
100
AcDbPoint
 10
-6755.64593777139
 20
6717607.79261508
  0
POINT
  5
201C4
100
AcDbEntity
  8
0
100
AcDbPoint
 10
-6757.64968860567
 20
6717614.41504532
  0
POINT
  5
201C5
100
AcDbEntity
  8
0
100
AcDbPoint
 10
-6759.31948096757
 20
6717621.75342025
  0
POINT
  5
201C6
100
AcDbEntity
  8
0
100
AcDbPoint
 10
-6761.21191231106
 20
6717625.69108757
  0
POINT
  5
201C7
100
AcDbEntity
  8
0
100
AcDbPoint
 10
-6763.21566314534
 20
6717630.52368189
  0
POINT
  5
201C8
100
AcDbEntity
  8
0
100
AcDbPoint
 10
-6758.98552249519
 20
6717637.68308614
  0
POINT
  5
201C9
100
AcDbEntity
  8
0
100
AcDbPoint
 10
-6751.74975559363
 20
6717638.57801212
  0
POINT
  5
201CA
100
AcDbEntity
  8
0
100
AcDbPoint
 10
-6746.74037850793
 20
6717642.157717
  0
POINT
  5
201CB
100
AcDbEntity
  8
0
100
AcDbPoint
 10
-6742.62155734858
 20
6717647.16930647
  0
POINT
  5
201CC
100
AcDbEntity
  8
0
100
AcDbPoint
 10
-6739.50461160637
 20
6717650.74901513
  0
POINT
  5
201CD
100
AcDbEntity
  8
0
100
AcDbPoint
 10
-6738.72537517081
 20
6717654.86568203
  0
POINT
  5
201CE
100
AcDbEntity
  8
0
100
AcDbPoint
 10
-6737.3895412813
 20
6717655.76060989
  0
POINT
  5
201CF
100
AcDbEntity
  8
0
100
AcDbPoint
 10
-6732.60280317718
 20
6717651.28597156
  0
POINT
  5
201D0
100
AcDbEntity
  8
0
100
AcDbPoint
 10
-6730.04245488894
 20
6717650.21205873
  0
POINT
  5
201D1
100
AcDbEntity
  8
0
100
AcDbPoint
 10
-6727.25946761911
 20
6717648.42220432
  0
POINT
  5
201D2
100
AcDbEntity
  8
0
100
AcDbPoint
 10
-6725.58967525721
 20
6717646.63235031
  0
POINT
  5
201D3
100
AcDbEntity
  8
0
100
AcDbPoint
 10
-6725.14439729404
 20
6717646.63235031
  0
POINT
  5
201D4
100
AcDbEntity
  8
0
100
AcDbPoint
 10
-6730.93301081529
 20
6717644.48452601
  0
POINT
  5
201D5
100
AcDbEntity
  8
0
100
AcDbPoint
 10
-6733.71599808512
 20
6717641.79974644
  0
POINT
  5
201D6
100
AcDbEntity
  8
0
100
AcDbPoint
 10
-6739.83857007875
 20
6717640.00989388
  0
POINT
  5
201D7
100
AcDbEntity
  8
0
100
AcDbPoint
 10
-6742.84419633017
 20
6717637.32511578
  0
POINT
  5
201D8
100
AcDbEntity
  8
0
100
AcDbPoint
 10
-6747.40829545269
 20
6717635.5352642
  0
POINT
  5
201D9
100
AcDbEntity
  8
0
100
AcDbPoint
 10
-6750.6365606857
 20
6717635.89323449
  0
POINT
  5
201DA
100
AcDbEntity
  8
0
100
AcDbPoint
 10
-6752.08371406601
 20
6717634.64033856
  0
POINT
  5
201DB
100
AcDbEntity
  8
0
100
AcDbPoint
 10
-6754.31010388187
 20
6717634.28236833
  0
POINT
  5
201DC
100
AcDbEntity
  8
0
100
AcDbPoint
 10
-6756.53649369774
 20
6717634.99830881
  0
POINT
  5
201DD
100
AcDbEntity
  8
0
100
AcDbPoint
 10
-6760.65531485709
 20
6717634.28236833
  0
POINT
  5
201DE
100
AcDbEntity
  8
0
100
AcDbPoint
 10
-6764.10621907168
 20
6717634.28236833
  0
POINT
  5
201DF
100
AcDbEntity
  8
0
100
AcDbPoint
 10
-6766.22128939675
 20
6717634.64033856
  0
POINT
  5
201E0
100
AcDbEntity
  8
0
100
AcDbPoint
 10
-6765.10809448882
 20
6717635.5352642
  0
POINT
  5
201E1
100
AcDbEntity
  8
0
100
AcDbPoint
 10
-6762.88170467296
 20
6717635.17729394
  0
POINT
  5
201E2
100
AcDbEntity
  8
0
100
AcDbPoint
 10
-6760.65531485709
 20
6717635.5352642
  0
POINT
  5
201E3
100
AcDbEntity
  8
0
100
AcDbPoint
 10
-6757.42704962409
 20
6717635.5352642
  0
POINT
  5
201E4
100
AcDbEntity
  8
0
100
AcDbPoint
 10
-6756.20253522536
 20
6717634.64033856
  0
POINT
  5
201E5
100
AcDbEntity
  8
0
100
AcDbPoint
 10
-6752.64031151998
 20
6717634.28236833
  0
POINT
  5
201E6
100
AcDbEntity
  8
0
100
AcDbPoint
 10
-6748.18753188824
 20
6717632.85048758
  0
POINT
  5
201E7
100
AcDbEntity
  8
0
100
AcDbPoint
 10
-6746.18378105397
 20
6717632.31353236
  0
POINT
  5
201E8
100
AcDbEntity
  8
0
100
AcDbPoint
 10
-6744.84794716445
 20
6717631.41860707
  0
POINT
  5
201E9
100
AcDbEntity
  8
0
100
AcDbPoint
 10
-6739.28197262478
 20
6717636.07221964
  0
POINT
  5
201EA
100
AcDbEntity
  8
0
100
AcDbPoint
 10
-6727.81606507307
 20
6717639.65192342
  0
POINT
  5
201EB
100
AcDbEntity
  8
0
100
AcDbPoint
 10
-6712.23133636202
 20
6717641.44177589
  0
POINT
  5
201EC
100
AcDbEntity
  8
0
100
AcDbPoint
 10
-6713.67848974233
 20
6717641.79974644
  0
POINT
  5
201ED
100
AcDbEntity
  8
0
100
AcDbPoint
 10
-6710.56154400012
 20
6717641.79974644
  0
POINT
  5
201EE
100
AcDbEntity
  8
0
100
AcDbPoint
 10
-6713.45585076074
 20
6717644.84249669
  0
POINT
  5
201EF
100
AcDbEntity
  8
0
100
AcDbPoint
 10
-6715.01432363185
 20
6717646.63235031
  0
POINT
  5
201F0
100
AcDbEntity
  8
0
100
AcDbPoint
 10
-6714.56904566867
 20
6717643.94757003
  0
POINT
  5
201F1
100
AcDbEntity
  8
0
100
AcDbPoint
 10
-6714.56904566867
 20
6717645.91640882
  0
POINT
  5
201F2
100
AcDbEntity
  8
0
100
AcDbPoint
 10
-6713.45585076074
 20
6717644.84249669
  0
POINT
  5
201F3
100
AcDbEntity
  8
0
100
AcDbPoint
 10
-6712.34265585281
 20
6717642.69467286
  0
POINT
  5
201F4
100
AcDbEntity
  8
0
100
AcDbPoint
 10
-6709.78230756456
 20
6717642.69467286
  0
POINT
  5
201F5
100
AcDbEntity
  8
0
100
AcDbPoint
 10
-6706.77668131315
 20
6717641.26279063
  0
POINT
  5
201F6
100
AcDbEntity
  8
0
100
AcDbPoint
 10
-6704.55029149728
 20
6717641.79974644
  0
POINT
  5
201F7
100
AcDbEntity
  8
0
100
AcDbPoint
 10
-6699.54091441158
 20
6717643.05264346
  0
POINT
  5
201F8
100
AcDbEntity
  8
0
100
AcDbPoint
 10
-6695.64473223382
 20
6717642.33670228
  0
POINT
  5
201F9
100
AcDbEntity
  8
0
100
AcDbPoint
 10
-6690.63535514812
 20
6717643.94757003
  0
POINT
  5
201FA
100
AcDbEntity
  8
0
100
AcDbPoint
 10
-6685.29201959004
 20
6717645.02148203
  0
POINT
  5
201FB
100
AcDbEntity
  8
0
100
AcDbPoint
 10
-6679.94868403197
 20
6717646.27437956
  0
POINT
  5
201FC
100
AcDbEntity
  8
0
100
AcDbPoint
 10
-6675.82986287262
 20
6717646.63235031
  0
POINT
  5
201FD
100
AcDbEntity
  8
0
100
AcDbPoint
 10
-6671.59972222247
 20
6717645.73742345
  0
POINT
  5
201FE
100
AcDbEntity
  8
0
100
AcDbPoint
 10
-6667.14694259074
 20
6717645.02148203
  0
POINT
  5
201FF
100
AcDbEntity
  8
0
100
AcDbPoint
 10
-6661.58096805108
 20
6717644.48452601
  0
POINT
  5
20200
100
AcDbEntity
  8
0
100
AcDbPoint
 10
-6656.90554943776
 20
6717644.84249669
  0
POINT
  5
20201
100
AcDbEntity
  8
0
100
AcDbPoint
 10
-6650.00374100858
 20
6717644.84249669
  0
POINT
  5
20202
100
AcDbEntity
  8
0
100
AcDbPoint
 10
-6641.09818174512
 20
6717645.73742345
  0
POINT
  5
20203
100
AcDbEntity
  8
0
100
AcDbPoint
 10
-6639.42838938322
 20
6717647.16930647
  0
POINT
  5
20204
100
AcDbEntity
  8
0
100
AcDbPoint
 10
-6638.31519447528
 20
6717648.42220432
  0
POINT
  5
20205
100
AcDbEntity
  8
0
100
AcDbPoint
 10
-6637.42463854894
 20
6717648.60118975
  0
POINT
  5
20206
100
AcDbEntity
  8
0
100
AcDbPoint
 10
-6633.19449789879
 20
6717647.52727727
  0
POINT
  5
20207
100
AcDbEntity
  8
0
100
AcDbPoint
 10
-6630.96810808293
 20
6717646.81133569
  0
POINT
  5
20208
100
AcDbEntity
  8
0
100
AcDbPoint
 10
-6629.40963521182
 20
6717647.16930647
  0
POINT
  5
20209
100
AcDbEntity
  8
0
100
AcDbPoint
 10
-6626.07005048802
 20
6717648.42220432
  0
POINT
  5
2020A
100
AcDbEntity
  8
0
100
AcDbPoint
 10
-6623.84366067216
 20
6717647.70626267
  0
POINT
  5
2020B
100
AcDbEntity
  8
0
100
AcDbPoint
 10
-6622.17386831026
 20
6717647.16930647
  0
POINT
  5
2020C
100
AcDbEntity
  8
0
100
AcDbPoint
 10
-6622.17386831026
 20
6717647.70626267
  0
POINT
  5
2020D
100
AcDbEntity
  8
0
100
AcDbPoint
 10
-6619.94747849439
 20
6717648.06423349
  0
POINT
  5
2020E
100
AcDbEntity
  8
0
100
AcDbPoint
 10
-6615.71733784425
 20
6717650.39104419
  0
POINT
  5
2020F
100
AcDbEntity
  8
0
100
AcDbPoint
 10
-6614.60414293632
 20
6717650.74901513
  0
POINT
  5
20210
100
AcDbEntity
  8
0
100
AcDbPoint
 10
-6613.49094802838
 20
6717651.28597156
  0
POINT
  5
20211
100
AcDbEntity
  8
0
100
AcDbPoint
 10
-6612.37775312045
 20
6717652.53887005
  0
POINT
  5
20212
100
AcDbEntity
  8
0
100
AcDbPoint
 10
-6611.04191923093
 20
6717653.0758266
  0
POINT
  5
20213
100
AcDbEntity
  8
0
100
AcDbPoint
 10
-6609.59476585062
 20
6717653.0758266
  0
POINT
  5
20214
100
AcDbEntity
  8
0
100
AcDbPoint
 10
-6611.82115566648
 20
6717651.64394254
  0
POINT
  5
20215
100
AcDbEntity
  8
0
100
AcDbPoint
 10
-6610.37400228617
 20
6717652.18089903
  0
POINT
  5
20216
100
AcDbEntity
  8
0
100
AcDbPoint
 10
-6612.37775312045
 20
6717652.18089903
  0
POINT
  5
20217
100
AcDbEntity
  8
0
100
AcDbPoint
 10
-6612.93435057442
 20
6717651.28597156
  0
POINT
  5
20218
100
AcDbEntity
  8
0
100
AcDbPoint
 10
-6613.156989556
 20
6717650.74901513
  0
POINT
  5
20219
100
AcDbEntity
  8
0
100
AcDbPoint
 10
-6614.38150395473
 20
6717650.21205873
  0
POINT
  5
2021A
100
AcDbEntity
  8
0
100
AcDbPoint
 10
-6615.93997682584
 20
6717648.42220432
  0
POINT
  5
2021B
100
AcDbEntity
  8
0
100
AcDbPoint
 10
-6615.93997682584
 20
6717647.52727727
  0
POINT
  5
2021C
100
AcDbEntity
  8
0
100
AcDbPoint
 10
-6615.38337937187
 20
6717647.52727727
  0
POINT
  5
2021D
100
AcDbEntity
  8
0
100
AcDbPoint
 10
-6615.38337937187
 20
6717647.52727727
  0
POINT
  5
2021E
100
AcDbEntity
  8
0
100
AcDbPoint
 10
-6614.04754548235
 20
6717648.42220432
  0
POINT
  5
2021F
100
AcDbEntity
  8
0
100
AcDbPoint
 10
-6614.60414293632
 20
6717650.74901513
  0
POINT
  5
20220
100
AcDbEntity
  8
0
100
AcDbPoint
 10
-6613.49094802838
 20
6717653.0758266
  0
POINT
  5
20221
100
AcDbEntity
  8
0
100
AcDbPoint
 10
-6614.93810140869
 20
6717656.11858107
  0
POINT
  5
20222
100
AcDbEntity
  8
0
100
AcDbPoint
 10
-6616.60789377059
 20
6717659.34032233
  0
POINT
  5
20223
100
AcDbEntity
  8
0
100
AcDbPoint
 10
-6619.94747849439
 20
6717660.23525068
  0
POINT
  5
20224
100
AcDbEntity
  8
0
100
AcDbPoint
 10
-6622.95310474581
 20
6717660.23525068
  0
POINT
  5
20225
100
AcDbEntity
  8
0
100
AcDbPoint
 10
-6622.95310474581
 20
6717655.76060989
  0
POINT
  5
20226
100
AcDbEntity
  8
0
100
AcDbPoint
 10
-6622.39650729184
 20
6717652.89684108
  0
POINT
  5
20227
100
AcDbEntity
  8
0
100
AcDbPoint
 10
-6623.84366067216
 20
6717648.42220432
  0
POINT
  5
20228
100
AcDbEntity
  8
0
100
AcDbPoint
 10
-6629.85491317499
 20
6717641.79974644
  0
POINT
  5
20229
100
AcDbEntity
  8
0
100
AcDbPoint
 10
-6638.31519447528
 20
6717631.41860707
  0
POINT
  5
2022A
100
AcDbEntity
  8
0
100
AcDbPoint
 10
-6661.02437059711
 20
6717616.20489226
  0
POINT
  5
2022B
100
AcDbEntity
  8
0
100
AcDbPoint
 10
-6678.05625268848
 20
6717611.01433723
  0
POINT
  5
2022C
100
AcDbEntity
  8
0
100
AcDbPoint
 10
-6696.42396866937
 20
6717608.15058415
  0
POINT
  5
2022D
100
AcDbEntity
  8
0
100
AcDbPoint
 10
-6702.546540663
 20
6717605.46581655
  0
POINT
  5
2022E
100
AcDbEntity
  8
0
100
AcDbPoint
 10
-6724.25384136769
 20
6717597.94847198
  0
POINT
  5
2022F
100
AcDbEntity
  8
0
100
AcDbPoint
 10
-6743.51211327493
 20
6717597.41151906
  0
POINT
  5
20230
100
AcDbEntity
  8
0
100
AcDbPoint
 10
-6764.66281652565
 20
6717600.99120585
  0
POINT
  5
20231
100
AcDbEntity
  8
0
100
AcDbPoint
 10
-6814.42262891024
 20
6717620.85849612
  0
POINT
  5
20232
100
AcDbEntity
  8
0
100
AcDbPoint
 10
-6843.69965498887
 20
6717634.10338323
  0
POINT
  5
20233
100
AcDbEntity
  8
0
100
AcDbPoint
 10
-6862.84660740532
 20
6717637.68308614
  0
POINT
  5
20234
100
AcDbEntity
  8
0
100
AcDbPoint
 10
-6884.21994963762
 20
6717639.65192342
  0
POINT
  5
20235
100
AcDbEntity
  8
0
100
AcDbPoint
 10
-6913.49697571625
 20
6717648.06423349
  0
POINT
  5
20236
100
AcDbEntity
  8
0
100
AcDbPoint
 10
-6941.10420943299
 20
6717653.43379766
  0
POINT
  5
20237
100
AcDbEntity
  8
0
100
AcDbPoint
 10
-6969.15672111289
 20
6717657.01350906
  0
POINT
  5
20238
100
AcDbEntity
  8
0
100
AcDbPoint
 10
-6993.42437010583
 20
6717654.86568203
  0
POINT
  5
20239
100
AcDbEntity
  8
0
100
AcDbPoint
 10
-6627.18324539596
 20
6717680.63964383
  0
POINT
  5
2023A
100
AcDbEntity
  8
0
100
AcDbPoint
 10
-6598.2401777897
 20
6717675.44904774
  0
POINT
  5
2023B
100
AcDbEntity
  8
0
100
AcDbPoint
 10
-6607.59101501634
 20
6717665.06786549
  0
POINT
  5
2023C
100
AcDbEntity
  8
0
100
AcDbPoint
 10
-6639.42838938322
 20
6717678.49181056
  0
POINT
  5
2023D
100
AcDbEntity
  8
0
100
AcDbPoint
 10
-6637.09068007656
 20
6717672.76425796
  0
POINT
  5
2023E
100
AcDbEntity
  8
0
100
AcDbPoint
 10
-6632.74921993562
 20
6717673.65918779
  0
POINT
  5
2023F
100
AcDbEntity
  8
0
100
AcDbPoint
 10
-6627.96248183151
 20
6717673.12222988
  0
POINT
  5
20240
100
AcDbEntity
  8
0
100
AcDbPoint
 10
-6621.5059513655
 20
6717671.86932823
  0
POINT
  5
20241
100
AcDbEntity
  8
0
100
AcDbPoint
 10
-6619.05692256805
 20
6717674.55411771
  0
POINT
  5
20242
100
AcDbEntity
  8
0
100
AcDbPoint
 10
-6612.93435057442
 20
6717677.05992203
  0
POINT
  5
20243
100
AcDbEntity
  8
0
100
AcDbPoint
 10
-6610.93059974014
 20
6717678.84978273
  0
POINT
  5
20244
100
AcDbEntity
  8
0
100
AcDbPoint
 10
-6609.26080737824
 20
6717680.28167158
  0
POINT
  5
20245
100
AcDbEntity
  8
0
100
AcDbPoint
 10
-6608.14761247031
 20
6717682.42950531
  0
POINT
  5
20246
100
AcDbEntity
  8
0
100
AcDbPoint
 10
-6608.48157094269
 20
6717683.50342239
  0
POINT
  5
20247
100
AcDbEntity
  8
0
100
AcDbPoint
 10
-6604.80802774651
 20
6717688.87300992
  0
POINT
  5
20248
100
AcDbEntity
  8
0
100
AcDbPoint
 10
-6602.69295742144
 20
6717691.02084592
  0
POINT
  5
20249
100
AcDbEntity
  8
0
100
AcDbPoint
 10
-6601.24580404112
 20
6717693.70564172
  0
POINT
  5
2024A
100
AcDbEntity
  8
0
100
AcDbPoint
 10
-6600.46656760557
 20
6717696.74841137
  0
POINT
  5
2024B
100
AcDbEntity
  8
0
100
AcDbPoint
 10
-6599.57601167922
 20
6717699.07523598
  0
POINT
  5
2024C
100
AcDbEntity
  8
0
100
AcDbPoint
 10
-6599.57601167922
 20
6717700.86510152
  0
POINT
  5
2024D
100
AcDbEntity
  8
0
100
AcDbPoint
 10
-6598.46281677129
 20
6717702.29699423
  0
POINT
  5
2024E
100
AcDbEntity
  8
0
100
AcDbPoint
 10
-6598.79677524367
 20
6717701.40206125
  0
POINT
  5
2024F
100
AcDbEntity
  8
0
100
AcDbPoint
 10
-6598.79677524367
 20
6717702.29699423
  0
POINT
  5
20250
100
AcDbEntity
  8
0
100
AcDbPoint
 10
-6597.12698288177
 20
6717701.76003443
  0
POINT
  5
20251
100
AcDbEntity
  8
0
100
AcDbPoint
 10
-6596.01378797384
 20
6717701.76003443
  0
POINT
  5
20252
100
AcDbEntity
  8
0
100
AcDbPoint
 10
-6594.56663459353
 20
6717701.76003443
  0
POINT
  5
20253
100
AcDbEntity
  8
0
100
AcDbPoint
 10
-6587.66482616434
 20
6717695.853479
  0
POINT
  5
20254
100
AcDbEntity
  8
0
100
AcDbPoint
 10
-6585.88371431165
 20
6717695.13753318
  0
POINT
  5
20255
100
AcDbEntity
  8
0
100
AcDbPoint
 10
-6585.1044778761
 20
6717695.853479
  0
POINT
  5
20256
100
AcDbEntity
  8
0
100
AcDbPoint
 10
-6583.76864398658
 20
6717695.853479
  0
POINT
  5
20257
100
AcDbEntity
  8
0
100
AcDbPoint
 10
-6583.21204653261
 20
6717695.853479
  0
POINT
  5
20258
100
AcDbEntity
  8
0
100
AcDbPoint
 10
-6582.32149060627
 20
6717700.86510152
  0
POINT
  5
20259
100
AcDbEntity
  8
0
100
AcDbPoint
 10
-6580.98565671675
 20
6717698.71726292
  0
POINT
  5
2025A
100
AcDbEntity
  8
0
100
AcDbPoint
 10
-6578.64794741009
 20
6717698.18030336
  0
POINT
  5
2025B
100
AcDbEntity
  8
0
100
AcDbPoint
 10
-6575.64232115867
 20
6717696.92739785
  0
POINT
  5
2025C
100
AcDbEntity
  8
0
100
AcDbPoint
 10
-6571.52349999932
 20
6717701.22307467
  0
POINT
  5
2025D
100
AcDbEntity
  8
0
100
AcDbPoint
 10
-6567.29335934917
 20
6717703.54990056
  0
POINT
  5
2025E
100
AcDbEntity
  8
0
100
AcDbPoint
 10
-6557.27460517778
 20
6717705.33976708
  0
POINT
  5
2025F
100
AcDbEntity
  8
0
100
AcDbPoint
 10
-6543.91626628259
 20
6717709.8144351
  0
POINT
  5
20260
100
AcDbEntity
  8
0
100
AcDbPoint
 10
-6544.47286373655
 20
6717712.4992371
  0
POINT
  5
20261
100
AcDbEntity
  8
0
100
AcDbPoint
 10
-6545.92001711687
 20
6717714.28910558
  0
POINT
  5
20262
100
AcDbEntity
  8
0
100
AcDbPoint
 10
-6546.69925355242
 20
6717712.85721077
  0
POINT
  5
20263
100
AcDbEntity
  8
0
100
AcDbPoint
 10
-6549.81619929463
 20
6717712.85721077
  0
POINT
  5
20264
100
AcDbEntity
  8
0
100
AcDbPoint
 10
-6551.15203318415
 20
6717710.35139543
  0
POINT
  5
20265
100
AcDbEntity
  8
0
100
AcDbPoint
 10
-6548.92564336828
 20
6717707.66659415
  0
POINT
  5
20266
100
AcDbEntity
  8
0
100
AcDbPoint
 10
-6548.92564336828
 20
6717707.66659415
  0
POINT
  5
20267
100
AcDbEntity
  8
0
100
AcDbPoint
 10
-6550.03883827622
 20
6717708.38254107
  0
POINT
  5
20268
100
AcDbEntity
  8
0
100
AcDbPoint
 10
-6551.9312696197
 20
6717708.9195013
  0
POINT
  5
20269
100
AcDbEntity
  8
0
100
AcDbPoint
 10
-6554.82557638033
 20
6717711.604303
  0
POINT
  5
2026A
100
AcDbEntity
  8
0
100
AcDbPoint
 10
-6554.15765943557
 20
6717711.96227663
  0
POINT
  5
2026B
100
AcDbEntity
  8
0
100
AcDbPoint
 10
-6554.49161790795
 20
6717712.14126345
  0
POINT
  5
2026C
100
AcDbEntity
  8
0
100
AcDbPoint
 10
-6555.60481281588
 20
6717716.97390906
  0
POINT
  5
2026D
100
AcDbEntity
  8
0
100
AcDbPoint
 10
-6556.9406467054
 20
6717720.55364839
  0
POINT
  5
2026E
100
AcDbEntity
  8
0
100
AcDbPoint
 10
-6556.71800772381
 20
6717722.34351865
  0
POINT
  5
2026F
100
AcDbEntity
  8
0
100
AcDbPoint
 10
-6556.71800772381
 20
6717723.59642806
  0
POINT
  5
20270
100
AcDbEntity
  8
0
100
AcDbPoint
 10
-6555.93877128826
 20
6717725.02832477
  0
POINT
  5
20271
100
AcDbEntity
  8
0
100
AcDbPoint
 10
-6554.26897892636
 20
6717724.49136348
  0
POINT
  5
20272
100
AcDbEntity
  8
0
100
AcDbPoint
 10
-6553.71238147239
 20
6717727.35515746
  0
POINT
  5
20273
100
AcDbEntity
  8
0
100
AcDbPoint
 10
-6553.71238147239
 20
6717733.97768491
  0
POINT
  5
20274
100
AcDbEntity
  8
0
100
AcDbPoint
 10
-6554.82557638033
 20
6717739.88426798
  0
POINT
  5
20275
100
AcDbEntity
  8
0
100
AcDbPoint
 10
-6553.6010619816
 20
6717740.77920519
  0
POINT
  5
20276
100
AcDbEntity
  8
0
100
AcDbPoint
 10
-6551.48599165653
 20
6717746.86478078
  0
POINT
  5
20277
100
AcDbEntity
  8
0
100
AcDbPoint
 10
-6552.59918656446
 20
6717749.54959499
  0
POINT
  5
20278
100
AcDbEntity
  8
0
100
AcDbPoint
 10
-6552.0425891105
 20
6717752.41339779
  0
POINT
  5
20279
100
AcDbEntity
  8
0
100
AcDbPoint
 10
-6552.26522809208
 20
6717751.33947162
  0
POINT
  5
2027A
100
AcDbEntity
  8
0
100
AcDbPoint
 10
-6553.04446452764
 20
6717750.98149626
  0
POINT
  5
2027B
100
AcDbEntity
  8
0
100
AcDbPoint
 10
-6553.15578401843
 20
6717754.91922606
  0
POINT
  5
2027C
100
AcDbEntity
  8
0
100
AcDbPoint
 10
-6553.04446452764
 20
6717757.78303074
  0
POINT
  5
2027D
100
AcDbEntity
  8
0
100
AcDbPoint
 10
-6552.0425891105
 20
6717763.86861904
  0
POINT
  5
2027E
100
AcDbEntity
  8
0
100
AcDbPoint
 10
-6550.81807471177
 20
6717767.44837898
  0
POINT
  5
2027F
100
AcDbEntity
  8
0
100
AcDbPoint
 10
-6549.48224082225
 20
6717771.92308113
  0
POINT
  5
20280
100
AcDbEntity
  8
0
100
AcDbPoint
 10
-6548.14640693273
 20
6717776.39778573
  0
POINT
  5
20281
100
AcDbEntity
  8
0
100
AcDbPoint
 10
-6546.47661457083
 20
6717784.63124862
  0
POINT
  5
20282
100
AcDbEntity
  8
0
100
AcDbPoint
 10
-6545.3634196629
 20
6717787.31607528
  0
POINT
  5
20283
100
AcDbEntity
  8
0
100
AcDbPoint
 10
-6542.58043239307
 20
6717788.21101769
  0
POINT
  5
20284
100
AcDbEntity
  8
0
100
AcDbPoint
 10
-6540.91064003117
 20
6717790.35887989
  0
POINT
  5
20285
100
AcDbEntity
  8
0
100
AcDbPoint
 10
-6539.46348665085
 20
6717792.68573124
  0
POINT
  5
20286
100
AcDbEntity
  8
0
100
AcDbPoint
 10
-6538.6842502153
 20
6717795.37056055
  0
POINT
  5
20287
100
AcDbEntity
  8
0
100
AcDbPoint
 10
-6537.79369428896
 20
6717798.77134562
  0
POINT
  5
20288
100
AcDbEntity
  8
0
100
AcDbPoint
 10
-6537.45973581658
 20
6717801.45617693
  0
POINT
  5
20289
100
AcDbEntity
  8
0
100
AcDbPoint
 10
-6536.45786039944
 20
6717803.42505379
  0
POINT
  5
2028A
100
AcDbEntity
  8
0
100
AcDbPoint
 10
-6535.78994345468
 20
6717805.57292
  0
POINT
  5
2028B
100
AcDbEntity
  8
0
100
AcDbPoint
 10
-6534.67674854674
 20
6717807.00483113
  0
POINT
  5
2028C
100
AcDbEntity
  8
0
100
AcDbPoint
 10
-6533.00695618485
 20
6717808.61573144
  0
POINT
  5
2028D
100
AcDbEntity
  8
0
100
AcDbPoint
 10
-6530.55792738739
 20
6717811.83753301
  0
POINT
  5
2028E
100
AcDbEntity
  8
0
100
AcDbPoint
 10
-6529.44473247946
 20
6717813.98540144
  0
POINT
  5
2028F
100
AcDbEntity
  8
0
100
AcDbPoint
 10
-6528.8881350255
 20
6717815.77529223
  0
POINT
  5
20290
100
AcDbEntity
  8
0
100
AcDbPoint
 10
-6527.77494011756
 20
6717817.20720515
  0
POINT
  5
20291
100
AcDbEntity
  8
0
100
AcDbPoint
 10
-6527.2183426636
 20
6717819.35507499
  0
POINT
  5
20292
100
AcDbEntity
  8
0
100
AcDbPoint
 10
-6527.77494011756
 20
6717822.57688082
  0
POINT
  5
20293
100
AcDbEntity
  8
0
100
AcDbPoint
 10
-6527.55230113598
 20
6717825.6196986
  0
POINT
  5
20294
100
AcDbEntity
  8
0
100
AcDbPoint
 10
-6526.88438419122
 20
6717828.30453877
  0
POINT
  5
20295
100
AcDbEntity
  8
0
100
AcDbPoint
 10
-6526.99570368201
 20
6717831.52634814
  0
POINT
  5
20296
100
AcDbEntity
  8
0
100
AcDbPoint
 10
-6527.44098164518
 20
6717833.67422176
  0
POINT
  5
20297
100
AcDbEntity
  8
0
100
AcDbPoint
 10
-6527.44098164518
 20
6717835.10613782
  0
POINT
  5
20298
100
AcDbEntity
  8
0
100
AcDbPoint
 10
-6528.10889858994
 20
6717840.11784602
  0
POINT
  5
20299
100
AcDbEntity
  8
0
100
AcDbPoint
 10
-6529.22209349787
 20
6717843.16067035
  0
POINT
  5
2029A
100
AcDbEntity
  8
0
100
AcDbPoint
 10
-6529.66737146105
 20
6717845.8455163
  0
POINT
  5
2029B
100
AcDbEntity
  8
0
100
AcDbPoint
 10
-6529.66737146105
 20
6717847.9933937
  0
POINT
  5
2029C
100
AcDbEntity
  8
0
100
AcDbPoint
 10
-6528.33153757153
 20
6717849.78329196
  0
POINT
  5
2029D
100
AcDbEntity
  8
0
100
AcDbPoint
 10
-6527.55230113598
 20
6717849.06733261
  0
POINT
  5
2029E
100
AcDbEntity
  8
0
100
AcDbPoint
 10
-6526.66174520963
 20
6717849.96228181
  0
POINT
  5
2029F
100
AcDbEntity
  8
0
100
AcDbPoint
 10
-6526.88438419122
 20
6717851.57319062
  0
POINT
  5
202A0
100
AcDbEntity
  8
0
100
AcDbPoint
 10
-6527.77494011756
 20
6717853.36308967
  0
POINT
  5
202A1
100
AcDbEntity
  8
0
100
AcDbPoint
 10
-6528.66549604391
 20
6717855.15298911
  0
POINT
  5
202A2
100
AcDbEntity
  8
0
100
AcDbPoint
 10
-6530.55792738739
 20
6717858.73278917
  0
POINT
  5
202A3
100
AcDbEntity
  8
0
100
AcDbPoint
 10
-6531.33716382295
 20
6717860.5226898
  0
POINT
  5
202A4
100
AcDbEntity
  8
0
100
AcDbPoint
 10
-6530.55792738739
 20
6717866.96633529
  0
POINT
  5
202A5
100
AcDbEntity
  8
0
100
AcDbPoint
 10
-6530.00132993343
 20
6717869.65118909
  0
POINT
  5
202A6
100
AcDbEntity
  8
0
100
AcDbPoint
 10
-6529.44473247946
 20
6717872.15705343
  0
POINT
  5
202A7
100
AcDbEntity
  8
0
100
AcDbPoint
 10
-6529.77869095184
 20
6717874.84190894
  0
POINT
  5
202A8
100
AcDbEntity
  8
0
100
AcDbPoint
 10
-6530.55792738739
 20
6717878.42171766
  0
POINT
  5
202A9
100
AcDbEntity
  8
0
100
AcDbPoint
 10
-6530.22396891501
 20
6717881.64354685
  0
POINT
  5
202AA
100
AcDbEntity
  8
0
100
AcDbPoint
 10
-6528.66549604391
 20
6717885.58133981
  0
POINT
  5
202AB
100
AcDbEntity
  8
0
100
AcDbPoint
 10
-6527.77494011756
 20
6717890.23509759
  0
POINT
  5
202AC
100
AcDbEntity
  8
0
100
AcDbPoint
 10
-6526.88438419122
 20
6717895.60482141
  0
POINT
  5
202AD
100
AcDbEntity
  8
0
100
AcDbPoint
 10
-6527.44098164518
 20
6717900.43757587
  0
POINT
  5
202AE
100
AcDbEntity
  8
0
100
AcDbPoint
 10
-6526.99570368201
 20
6717907.23923516
  0
POINT
  5
202AF
100
AcDbEntity
  8
0
100
AcDbPoint
 10
-6528.8881350255
 20
6717910.64006693
  0
POINT
  5
202B0
100
AcDbEntity
  8
0
100
AcDbPoint
 10
-6528.10889858994
 20
6717912.42997896
  0
POINT
  5
202B1
100
AcDbEntity
  8
0
100
AcDbPoint
 10
-6527.99757909915
 20
6717915.11484774
  0
POINT
  5
202B2
100
AcDbEntity
  8
0
100
AcDbPoint
 10
-6530.33528840581
 20
6717917.08375207
  0
POINT
  5
202B3
100
AcDbEntity
  8
0
100
AcDbPoint
 10
-6532.22771974929
 20
6717917.97870875
  0
POINT
  5
202B4
100
AcDbEntity
  8
0
100
AcDbPoint
 10
-6533.67487312961
 20
6717918.87366552
  0
POINT
  5
202B5
100
AcDbEntity
  8
0
100
AcDbPoint
 10
-6533.00695618485
 20
6717917.08375207
  0
POINT
  5
202B6
100
AcDbEntity
  8
0
100
AcDbPoint
 10
-6532.00508076771
 20
6717917.97870875
  0
POINT
  5
202B7
100
AcDbEntity
  8
0
100
AcDbPoint
 10
-6530.33528840581
 20
6717919.23164826
  0
POINT
  5
202B8
100
AcDbEntity
  8
0
100
AcDbPoint
 10
-6531.11452484136
 20
6717920.12660517
  0
POINT
  5
202B9
100
AcDbEntity
  8
0
100
AcDbPoint
 10
-6529.11077400708
 20
6717920.48458796
  0
POINT
  5
202BA
100
AcDbEntity
  8
0
100
AcDbPoint
 10
-6529.22209349787
 20
6717920.66357936
  0
POINT
  5
202BB
100
AcDbEntity
  8
0
100
AcDbPoint
 10
-6525.5485503017
 20
6717920.66357936
  0
POINT
  5
202BC
100
AcDbEntity
  8
0
100
AcDbPoint
 10
-6524.99195284773
 20
6717921.379545
  0
POINT
  5
202BD
100
AcDbEntity
  8
0
100
AcDbPoint
 10
-6521.98632659631
 20
6717919.23164826
  0
POINT
  5
202BE
100
AcDbEntity
  8
0
100
AcDbPoint
 10
-6521.09577066997
 20
6717918.87366552
  0
POINT
  5
202BF
100
AcDbEntity
  8
0
100
AcDbPoint
 10
-6524.76931386614
 20
6717919.58963101
  0
POINT
  5
202C0
100
AcDbEntity
  8
0
100
AcDbPoint
 10
-6527.99757909915
 20
6717922.45349359
  0
POINT
  5
202C1
100
AcDbEntity
  8
0
100
AcDbPoint
 10
-6530.78056636898
 20
6717924.06441674
  0
POINT
  5
202C2
100
AcDbEntity
  8
0
100
AcDbPoint
 10
-6532.00508076771
 20
6717927.82323865
  0
POINT
  5
202C3
100
AcDbEntity
  8
0
100
AcDbPoint
 10
-6535.90126294547
 20
6717930.86609575
  0
POINT
  5
202C4
100
AcDbEntity
  8
0
100
AcDbPoint
 10
-6537.23709683499
 20
6717932.65601222
  0
POINT
  5
202C5
100
AcDbEntity
  8
0
100
AcDbPoint
 10
-6538.12765276134
 20
6717934.08794569
  0
POINT
  5
202C6
100
AcDbEntity
  8
0
100
AcDbPoint
 10
-6534.45410956516
 20
6717931.76105394
  0
POINT
  5
202C7
100
AcDbEntity
  8
0
100
AcDbPoint
 10
-6534.23147058357
 20
6717931.40307065
  0
POINT
  5
202C8
100
AcDbEntity
  8
0
100
AcDbPoint
 10
-6534.45410956516
 20
6717931.76105394
  0
POINT
  5
202C9
100
AcDbEntity
  8
0
100
AcDbPoint
 10
-6534.67674854674
 20
6717930.86609575
  0
POINT
  5
202CA
100
AcDbEntity
  8
0
100
AcDbPoint
 10
-6534.45410956516
 20
6717930.5081125
  0
POINT
  5
202CB
100
AcDbEntity
  8
0
100
AcDbPoint
 10
-6534.67674854674
 20
6717930.86609575
  0
POINT
  5
202CC
100
AcDbEntity
  8
0
100
AcDbPoint
 10
-6534.45410956516
 20
6717932.11903724
  0
POINT
  5
202CD
100
AcDbEntity
  8
0
100
AcDbPoint
 10
-6534.12015109278
 20
6717933.55097061
  0
POINT
  5
202CE
100
AcDbEntity
  8
0
100
AcDbPoint
 10
-6533.89751211119
 20
6717934.98290423
  0
POINT
  5
202CF
100
AcDbEntity
  8
0
100
AcDbPoint
 10
-6533.89751211119
 20
6717936.23584635
  0
POINT
  5
202D0
100
AcDbEntity
  8
0
100
AcDbPoint
 10
-6537.23709683499
 20
6717939.81568205
  0
POINT
  5
202D1
100
AcDbEntity
  8
0
100
AcDbPoint
 10
-6537.79369428896
 20
6717942.50055986
  0
POINT
  5
202D2
100
AcDbEntity
  8
0
100
AcDbPoint
 10
-6538.90688919689
 20
6717944.82745468
  0
POINT
  5
202D3
100
AcDbEntity
  8
0
100
AcDbPoint
 10
-6539.79744512324
 20
6717950.01822244
  0
POINT
  5
202D4
100
AcDbEntity
  8
0
100
AcDbPoint
 10
-6541.46723748514
 20
6717951.80814312
  0
POINT
  5
202D5
100
AcDbEntity
  8
0
100
AcDbPoint
 10
-6544.25022475497
 20
6717953.5980642
  0
POINT
  5
202D6
100
AcDbEntity
  8
0
100
AcDbPoint
 10
-6557.27460517778
 20
6717954.49302488
  0
POINT
  5
202D7
100
AcDbEntity
  8
0
100
AcDbPoint
 10
-6563.95377462538
 20
6717955.56697784
  0
POINT
  5
202D8
100
AcDbEntity
  8
0
100
AcDbPoint
 10
-6568.40655425711
 20
6717957.35689974
  0
POINT
  5
202D9
100
AcDbEntity
  8
0
100
AcDbPoint
 10
-6570.96690254535
 20
6717960.39976788
  0
POINT
  5
202DA
100
AcDbEntity
  8
0
100
AcDbPoint
 10
-6571.96877796249
 20
6717961.83170622
  0
POINT
  5
202DB
100
AcDbEntity
  8
0
100
AcDbPoint
 10
-6573.19329236122
 20
6717964.87457602
  0
POINT
  5
202DC
100
AcDbEntity
  8
0
100
AcDbPoint
 10
-6572.30273643487
 20
6717964.51659128
  0
POINT
  5
202DD
100
AcDbEntity
  8
0
100
AcDbPoint
 10
-6569.51974916504
 20
6717961.65271391
  0
POINT
  5
202DE
100
AcDbEntity
  8
0
100
AcDbPoint
 10
-6567.07072036759
 20
6717959.50480654
  0
POINT
  5
202DF
100
AcDbEntity
  8
0
100
AcDbPoint
 10
-6564.51037207934
 20
6717957.71488417
  0
POINT
  5
202E0
100
AcDbEntity
  8
0
100
AcDbPoint
 10
-6561.72738480951
 20
6717956.28294655
  0
POINT
  5
202E1
100
AcDbEntity
  8
0
100
AcDbPoint
 10
-6559.27835601206
 20
6717956.28294655
  0
ENDSEC
  0
SECTION
  2
OBJECTS
  0
DICTIONARY
  5
C
330
0
100
AcDbDictionary
281
     1
  3
ACAD_GROUP
350
D
  3
ACAD_LAYOUT
350
1A
  3
ACAD_MLEADERSTYLE
350
43
  3
ACAD_PLOTSETTINGS
350
19
  3
ACAD_PLOTSTYLENAME
350
E
  3
ACAD_TABLESTYLE
350
42
  0
DICTIONARY
  5
D
102
{ACAD_REACTORS
330
C
102
}
330
C
100
AcDbDictionary
281
     1
  0
DICTIONARY
  5
1A
102
{ACAD_REACTORS
330
C
102
}
330
C
100
AcDbDictionary
281
     1
  3
Layout1
350
1E
  3
Model
350
22
  0
DICTIONARY
  5
43
102
{ACAD_REACTORS
330
C
102
}
330
C
100
AcDbDictionary
281
     1
  0
DICTIONARY
  5
19
102
{ACAD_REACTORS
330
C
102
}
330
C
100
AcDbDictionary
281
     1
  0
ACDBDICTIONARYWDFLT
  5
E
102
{ACAD_REACTORS
330
C
102
}
330
C
100
AcDbDictionary
281
     1
  3
Normal
350
F
100
AcDbDictionaryWithDefault
340
F
  0
DICTIONARY
  5
42
102
{ACAD_REACTORS
330
C
102
}
330
C
100
AcDbDictionary
281
     1
  0
LAYOUT
  5
1E
102
{ACAD_REACTORS
330
1A
102
}
330
1A
100
AcDbPlotSettings
  1

  2
none_device
  4

  6

 40
0.0
 41
0.0
 42
0.0
 43
0.0
 44
0.0
 45
0.0
 46
0.0
 47
0.0
 48
0.0
 49
0.0
140
0.0
141
0.0
142
1.0
143
1.0
 70
   688
 72
     0
 73
     0
 74
     5
  7

 75
    16
 76
     0
 77
     2
 78
   300
147
1.0
148
0.0
149
0.0
100
AcDbLayout
  1
Layout1
 70
     1
 71
     1
 10
0.0
 20
0.0
 11
12.0
 21
9.0
 12
0.0
 22
0.0
 32
0.0
 14
1.000000000000000E+20
 24
1.000000000000000E+20
 34
1.000000000000000E+20
 15
-1.000000000000000E+20
 25
-1.000000000000000E+20
 35
-1.000000000000000E+20
146
0.0
 13
0.0
 23
0.0
 33
0.0
 16
1.0
 26
0.0
 36
0.0
 17
0.0
 27
1.0
 37
0.0
 76
     0
330
1B
  0
LAYOUT
  5
22
102
{ACAD_REACTORS
330
1A
102
}
330
1A
100
AcDbPlotSettings
  1

  2
none_device
  4

  6

 40
0.0
 41
0.0
 42
0.0
 43
0.0
 44
0.0
 45
0.0
 46
0.0
 47
0.0
 48
0.0
 49
0.0
140
0.0
141
0.0
142
1.0
143
1.0
 70
  1712
 72
     0
 73
     0
 74
     0
  7

 75
     0
 76
     0
 77
     2
 78
   300
147
1.0
148
0.0
149
0.0
100
AcDbLayout
  1
Model
 70
     1
 71
     0
 10
0.0
 20
0.0
 11
12.0
 21
9.0
 12
0.0
 22
0.0
 32
0.0
 14
30.0
 24
49.75
 34
0.0
 15
130.5
 25
163.1318914119703
 35
0.0
146
0.0
 13
0.0
 23
0.0
 33
0.0
 16
1.0
 26
0.0
 36
0.0
 17
0.0
 27
1.0
 37
0.0
 76
     0
330
1F
331
29
  0
ACDBPLACEHOLDER
  5
F
102
{ACAD_REACTORS
330
E
102
}
330
E
  0
ENDSEC
  0
EOF
